<svg xmlns="http://www.w3.org/2000/svg" width="553" height="142" viewBox="0 0 553 142"><path fill="#fff" d="M549.656 31.298c-1.434.228-2.598-.293-3.732-.788-3.303-.25-5.539 1.118-8.711.629-6.223.489-12.514.777-18.35 2.18-1.125-.522-2.105.32-3.104.48-2.03 1.076-2.293 3.172-2.977 4.954.477 1.033 1.256 0 2.039.319 3.948.07 8.555.812 11.814-1.23 1.365-.349 2.076.911 3.117 1.403 1.719 2.142 3.014 4.472 3.105 7.289-1.389 1.329.301 4.053-2.029 4.837-1.525.414-3.023 1.009-4.508 1.552-.355.746.553 1.104.946 1.401.959 0 1.218 1.16 1.839 1.719 0 2.367.195 5.208-.91 7.32-.771.459-1.426.936-2.031 1.559-3.123.938-6.529 1.236-9.633 2.166-3.113-.062-6.123-.415-9.033-.93-1.66-1.336-3.69-1.73-5.283-3.284-1.328-.872-1.104-2.524-2.502-3.241l-.447-.48c-1.646 3.693-3.688 8.853-8.391 9.168-3.406.548-7.061-.149-9.979-1.68-6.35-1.945-12.34-6.072-16.771-11.228-.527-.739-1.5-1.585-1.562-2.655l-1.236-1.557-.484.482c.295 3.276-1.291 6.519.158 9.514 0 2.449-.35 4.961-2.164 6.509.033.319-.035.581-.324.782-2.852.188-5.602-.553-6.988-3.273-.979-.98-.391-2.628-.791-3.888-.275-2.177-.098-4.771-.158-6.847l-.615-.619c-3.988 0-7.74.463-11.334 1.4-3.477 3.979-3.693 9.561-7.947 12.934-.891-.064-1.023-1.625-2.326-1.107-.738-.576-1.393-1.972-2.5-1.229-2.035-3.766-1.006-8.371 1.555-11.537 3.051-3.336 2.18-8.508 4.994-11.811.648-.158 1.209-.873 1.553-1.43 2.465-4.189 4.432-8.588 6.68-12.9 2.428-3.468 4.793-7.326 8.258-9.941 1.775-.617 3.402-.227 5.123.294 3.27 3.719 5.605 7.837 5.893 12.764 1.266 2.533.553 5.866 1.426 8.563 1.629-.979 1.162-3.09 2.799-4.219.312-1.938 2.326-2.822 2.943-4.664 3.523-2.008 6.414-4.568 10.271-5.746 4.205-2.037 8.938-3.203 13.824-3.112 1.359-.771 2.666.462 3.885.944.885 1.137 1.592 2.334 2.658 3.396 1.559 4.36 2.627 10.425-.928 14.179-.849.906-1.73 1.68-2.781 2.006-2.9.071-5.492-.838-7.336-2.949.154-2.035-1.127-3.952.453-5.607.42-.771-.098-1.566-.117-2.335-1.145-.517-2.342.589-3.607.642-2.973.656-5.09 2.539-7.449 4.676-2.326 2.854-4.367 5.844-4.826 9.467 2.135 3.469 6.027 5.283 9.49 6.869 3.309 1.477 8.33 1.986 11.506-.16 1.426-.749 2.479-2.854 4.334-2.042.676.849.873 1.851 1.559 2.661l.479-.459c.662-2.629-.088-5.789 1.23-8.098.812-4.152 2.564-7.914 4.384-11.668 0-1.691-.194-3.838.774-5.289.33-2.752 3.269-4.115 5.576-4.668 1.518-.326 3.016-1.199 4.662-.617 1.258-.549 2.885-.735 4.217-.643 3.656-1.406 8.068-.979 11.818-2.18 1.557.68 3.4.195 4.67-.779.85-.617 2.17-.066 3.104-.457 2.888 0 6.191-2.812 8.724 0 1.294 1.787 3.173 3.534 2.944 5.741.843 1.496-.998 3.205.285 4.671.101.839-.583 1.495-1.225 1.877zm-98.59 2.789c.389-.676-.098-1.321-.169-2.006-.229-.427-.604-1.032-1.228-.783-.582.261-.199.882-.473 1.224-1.053 2.058-2.248 3.99-3.121 6.105-.154.818-1.369 1.788-.459 2.457 1.655.169 3.145-.191 4.674-.443 1.653-1.793.741-4.246.776-6.554zm57.213 19.614c.322 1.197 1.65.779 2.318 1.406 1.947.531 3.934.345 5.773.154 1.07-1.595 2.332.67 3.73-.302 1.559-.42 2.91-1.78 4.662-1.261.723.127.326-.521.175-.778-1.952-.388-4.257.165-6.077-.458-1.42.458-2.91-.216-4.195 0-2.208 1.041-5.419-1.582-6.386 1.239zm-73.381-29.859c.619.266 1.456 1.275.291 1.689.031.879.977 1.707-.158 2.336-.52 2.197-3.24 1.812-4.949 2.49-4.9 1.23-9.955 1.981-14.949 2.959-2.684 1.32-6.955.771-7.768 4.662-.031.815-1.162 1.133-.938 2.053 2.455 1.9 5.08-.399 7.936.16 1.879-.562 3.881-.857 5.764-1.438 1.299-.479 2.269-2.171 3.723-1.858.359.985 1.535 1.604 2.007 2.521.034 1.838 1.851 3.132 1.106 5.119.771 1.488-.776 2.744-1.395 4.043-1.916 1.17-4.367.973-6.377 1.845-2.434-.772-4.475.779-6.707.486-2.322.079-4.346 1.786-6.673.942-1.747.644-4.728.228-4.825 2.947 1.584 2.729 4.885 3.189 7.932 2.624 2.561-1.104 5.244-1.909 7.773-3.101 2.467-.399 3.045 2.457 4.057 3.879.252 3.672.07 7.556-3.6 9.212-1.324.782-2.986.873-4.174 2.009-1.691.26-3.219.139-4.836.327-2.498-.298-4.992-.647-7.32-1.433-.488.231-1-.314-1.557-.44-5.275-3.544-8.809-8.896-7.443-15.722.611-3.377 1.104-6.82 2.945-9.644 0-.872.648-1.452.605-2.321 1.684-1.6 1.76-3.836 3.283-5.449.027-1.691 2.002-2.533 2.029-4.232.979-.604.582-1.802 1.396-2.48.23-1.59.649-3.108 1.723-4.346 2.459-2.171 6.092-1.486 8.84-2.949 1.359-.1 2.596-.388 3.727-.942 3.105.708 4.869-1.851 7.648-1.878 2.462-.235 4.57-1.407 7.123-1.407.355 1.735 3.635.69 2.203 3.13.129.807 1.592.835 1.07 1.717.025.354-.062.735.326.944.291-.071.576.033.777.287-.39.355-.74.712-.615 1.259zm-37.193 9.474l-.615 2.033c-.703 1.072-1.131 2.309-2.172 3.276-.154.353.041.849-.445 1.067-.848 0-1.652-.062-2.199.619l.156.492c-1.332-.139-2.107 1-3.107 1.707.035.561.062 1.391-.613 1.391-.326-.062-.525-.482-.941-.311-.486.188-.195.67 0 .77-1.945-.032-3.049 2.054-5.115 1.724-1.689.812-3.342 1.619-5.283 1.713l-.488.464c-.576 2.26-.604 4.766-1.223 7 .16 2.486-.332 5.268-.17 7.772.463 2.372-.52 4.538-2.17 6.226-1.301-.843-2.271 1.465-3.438 0-.744-1.258-2.562-.354-3.115-1.847-1.742-2.69-1.87-6.64-1.064-9.83-.258-2.292.396-4.229.619-6.383-.719-1.33-2.652-1.06-3.111-2.624-1.428-.909-1.555-2.395-2.328-3.588-.586-1.861 1.035-3.213.773-5.127 1.104-1.109 2.014-3.28 4.047-2.672 3.055-.506 1.229-4.426 2.18-6.512.191-.681-.268-1.166-.787-1.393-2.485.818-5.412.712-7.448 2.628-2.104.292-4.47.388-5.763-1.718-1.229.265-.748 1.748-1.102 2.65 1.553 2.375.321 5.512.479 8.233.457 3.413-.189 6.173-.321 9.503l-.616 4.521c-.229 1.711 1.689 2.707.782 4.523.45 3.4-.521 6.619-2.166 9.344-.813-.109-1.491.022-2.048.612-2.23-.724-5.252.841-6.064-2.336-2.777-3.048-.67-8.142-4.168-10.899-1.529-2.586-3.5-4.98-4.537-7.775-1.008-.612-1.074-2.07-2.334-2.16-1.16 3.729-2.07 7.572-2.787 11.504.391 2.492.063 5.479-.937 7.775-.868.914-1.815 2.07-3.108 1.236-1.26-.845-3.174-.193-4.342-1.236-3.271-2.528-2.332-7.449-1.396-10.896.916-5.479 2.564-10.63 2.953-16.34.486-2.229-.42-5.051.775-7.001-.384-1.293-1.494-2.647-.611-4.052-.553-1.67.358-3.34-.164-4.984.188-2.37 2.883-4.129 4.826-4.964 1.903 1.164 4.791.681 6.051 2.782 1.688 3.113.556 7.371 1.562 10.738-.56 2.133 1.423 3.231 2.171 4.823 2.264 2.655 4.207 5.481 6.221 8.267 1.295-.844.024-3.01 1.096-4.039.199-.107.492-.584 0-.785-.264-1.467.455-2.891 0-4.061.104-1.713-.264-3.435.295-5.119.91-3.371-.096-7.551 1.555-10.604.582-.777 1.717-.132 2.336-.777 1.91.387 3.973 1.627 4.66 3.608.32.862-.121 2.358 1.104 2.623.744-1.161.91-2.854 2.492-3.406.903-.301 1.744.574 2.467-.161-.076-1.066.578-1.717 1.555-1.887 1.715.777 3.496-1.523 4.824.17.902.223 1.75.712 2.5-.17.732-.066 1.354-.457 2.002-.777l-.164-.613c.941.131 1.553-.905 2.494-.315.234.733 1.107.958 1.729.638 1.193-1.271 3.17 1.24 4.213-.935.42.265.801.612 1.389.45.594-.063 1.424.104 2.017.482 2.429-.609 4.659 1.143 6.993.293.32.424.482.92.934 1.27 1.207.515 2.471-.559 3.271.9.689 1.58 2.234 2.401 2.787 4.062 1.002.904.908 2.229 1.553 3.266.675 1.732.628 3.156.599 5.142zm-11.495-3.897c-3.274-.782-6.838-1.782-10.396-.899v1.227c1.129 1.623.678 3.895 1.232 5.775l.445.443c1.162.041 2.332.064 3.109-.777 1.809-.062 3.006-1.549 4.533-2.336 1.204-.706 2.529-2.202 1.077-3.433zm-68.257-7.299c1.295.884 1.783 2.405 2.652 3.569-.227 1.359-.188 2.828-.611 4.055-1.398 1.203-3.626.289-5.319.766-1.753-.047-3.294.788-4.943.471-1.889.938-4.966 0-6.847 1.412-2.04-.149-3.982.629-4.983 2.352.319 1.713-3.207 2.751-1.395 4.171 4.338-.681 8.844-.872 12.434-3.394.948-.27 1.271.951 2.174.772 2.105 1.332 2.177 3.828 3.562 5.577-.062 2.031.49 4.566-1.841 5.445-2.623 1.004-5.284 1.808-8.106 2.33-1.026 0-2.753-.74-3.397.656-1.616.413-3.721-.302-5.149.604-1.718-.52-2.949 1.143-4.827.777-.772.592-1.07 1.364-.902 2.34 1.388 1.652 3.721 1.721 5.889 1.848 2.466-.713 5.023.302 7.005-1.549.676-.523 1.299-1.688 2.168-1.235 1.852 2.101 3.857 4.146 3.893 6.997-.288 2.012.127 4.312-1.559 5.773-1.421.687-2.49 2.232-4.338 1.848-.781.581-1.597 1.554-2.66.943-.479-.453-1.196-.883-1.845-.453l-.327.291.327.315c-1.393.784-2.104-1.489-3.601-.485-1.614-.314-3.344-.44-4.656-1.543-1.625.383-2.624-.76-3.885-1.25-1.33-.83-1.763-2.584-2.635-3.883-1.488-1.029-.877-3.181-2.334-4.342-1.812-5.99 1.07-11.607 1.846-17.271.979-2.34 1.692-4.778 3.604-6.715.778-3.25-.756-7.879 3.106-9.476 2.746.134 4.472-2.788 7.452-1.722 1.907-.389 3.625-1.197 5.76-1.104 1.886-1.229 4.44-.773 6.513-1.554 2.688-.457 6.091-.778 7.943 1.718-.071.338.125.721-.168.946zm-34.047 7.299l-3.439 1.437c-1.065-.139-1.751-.069-2.624.442-2.458.747-5.375.33-7.609 1.554-1.979.17-3.763.854-5.604 1.235-1.198.584-2.918.584-3.438 2.207.23 1.071-1.159 2.04 0 2.951 2.143.838 3.729-.911 5.771-.332 1.911-1.071 4.336-.995 6.374-1.847 1.754.039 3.146 1.205 4.182 2.629.134.617.357 1.195.785 1.72.548 1.688.124 3.756 1.099 5.284.196 1.006-.915 1.164-1.394 1.707-2.105.373-4.151 1.213-6.22 1.109-2.042 0-4.604-.156-6.383.627-2.527.127-4.795.924-7.324 1.059-.745.785-.967 1.947-.607 2.99 1.804 1.127 3.949 1.554 6.051 2.006 2.429.553 3.794-1.463 5.77-2.006 1.838.916 2.496 2.883 3.724 4.332.91 2.99.618 6.666-2 8.729-1.49 1.266-3.731.686-5.312 1.723-2.116 0-4.029-.486-5.745-1.431-1.329-.062-2.323-.974-3.591-1.229-1.293-.558-2.653-.974-3.886-1.719-3.696-2.892-5.05-7.199-4.79-11.674-.487-.873-.14-2.236 0-3.273.511-3.303 1.747-6.352 3.104-9.334 0-1.24.879-2.137.783-3.42-2.724-1.608-3.178-4.397-3.107-7.312.089-1.816.97-3.465 2.324-4.663 1.267-1.495 3.696-.202 4.961-1.724 1.939-.771 4.141-.899 6.06-1.684 1.74.102 3.106-.748 4.656-1.109 2.821-.391 5.511-1.006 8.102-1.867 2.107.381 4.706-.911 6.219 1.255l1.399 2.506c.188 0 .392-.071.488.128-.393 1.778 1.161 3.176 1.549 4.814.346.714-.008 1.573-.328 2.18zm-43.097 8.726c.105 1.608-.962 2.724-1.226 4.211-1.227 1.361-1.618 3.277-3.262 4.347-.106.577-1.168.776-.784 1.562 3.397 4.92 12.63 5.146 11.045 12.764-1.486 1.851-2.784 3.959-4.497 5.615-1.491-.357-3.209-.586-4.672-.48-3.661-4.831-8.748-8.764-13.541-12.133-.454-.387-.296-1.297-1.072-1.27-1.451.788-.708 2.432-1.545 3.44.188 3.265.866 6.358.605 9.784-.285 1.176-1.269 2.279-2.33 2.82-2.432.194-4.467-.711-5.926-2.49-3.466-4.869.062-10.899-.615-16.34-1.849-1.521-2.366-3.767-1.849-6.07-.392-.705-.17-1.28 0-2.031 1.455-.064.521-1.947 2.009-2.008 1.073.094 2.209-.051 2.664-1.11.411-2.651 1.545-5.091 2.001-7.772.42-1.111-.938-1.234-1.387-1.853-1.432-1.198-1.269-3.241-1.269-4.827.549-.736-.133-1.877.938-2.496-.591-1.104 1.136-1.752 1.554-2.5.48-.59.877-1.062 1.558-1.682.705.053 1.169-.876 1.885-.33 1.998.028 3.616-1.33 5.728-.613 1.979-.867 3.957.166 5.604.943 2.011.58 4.109 2.166 4.986 4.182.943.619.748 1.963 1.845 2.65-.128.361.452.662 0 .943 1.198 1.746 2.183 3.631 2.206 5.898.519 1.521.323 3.543.13 5.125-.097.644-.319 1.235-.783 1.721zm-9.006-8.401c-1.222-1.426-2.911-2.984-4.98-2.335.684 4.114-.779 7.715-1.387 11.504.123.293.419.101.605.159 2.558-.963 5.475-3.723 6.227-6.375l-.134-.178c.65-.83.099-1.966-.331-2.775zm-22.542 19.007c.039.896-.775 1.458-.933 2.315-.521 1.762-1.499 3.306-1.561 5.285-.717 2.059-1.103 4.215-1.556 6.396-.68 1.075.066 2.175-.618 3.235.067.656-.133 1.369.165 1.895l-.165.148.165.17c.062.431-.128 1.326.163 1.841-.261 2.271.161 5.252-2.21 6.233-2.558 1.1-5.475.1-7.777-.938-1.227-1.001-.835-2.694-.897-4.183.556-1.832-.483-3.735.295-5.455-.169-.797.643-1.782-.295-2.332-2.072.582-3.853 1.853-6.092 2.008-1.583.488-3.403 1.006-5.115.787-2.502 0-5.131.219-7.609-.299-2.34-1.037-5.095-1.111-7.324-2.326-2.727-1.238-5.119-3.277-6.39-6.108.298-.425.099-.993.162-1.552-.188-.48-.707-.23-1.063-.289.684-.684.225-1.393.123-2.18-.516-.277-.384-.836-.612-1.248.395.152.688.479 1.1.479.657-.464-.188-1.235.159-1.729.106-.697-.249-1.196-.646-1.713.646-1.814-1.293-3.5.485-4.83-.386-1.168.852-2.105.622-3.398 2.492-1.854 2.234-5.387 5.273-6.878.23-.155.23-.383.329-.614.456-.062.911.74 1.229 0 .064-.621-.615-1.104-.159-1.721.484-1.395 2.099-1.621 2.814-2.779.649-.266 1.156.608 1.556-.337.391-.829-.229-2.226.937-2.618.104.293.393.102.623.161.127-1.76 2.355-.382 2.485-2.204 1.177-.41 2.076-1.552 3.115-2.34 1.91-1.095 2.754-3.812 5.124-3.879 2.425-1.725 5.729-2.693 8.711-1.699 2.594.43 4.341 2.596 6.058 4.516.939 2.992 2.847 6.711.776 9.787-1.395.527-2.594 2.072-4.338 1.271-3.016-1.628-2.04-7.487-6.551-6.229-8.778 4.021-15.58 12.58-20.826 20.521-.484 2.043-2.334 3.671-1.396 6.066 1.457 3.945 6.126 3.402 9.458 4.363 1.011 1.852 2.982.359 4.384.784 2.977 1.228 5.5-1.005 8.381-.476.65-1.078 1.98-.487 2.797-1.078 1.545-1.211 3.716-2.113 3.271-4.516-.622-1.123-1.459.1-2.179.133-4.345.85-9.099.738-13.054 2.5-1.229 0-2.267-.485-3.271-1.064-.328-1.048-.782-1.949-1.393-2.822 0-2.787-.461-6.162 2.493-7.3 7.296-2.649 15.74-2.392 23.322-4.37 2.074.034 4.307-.031 5.445 2.049.128 1.194 1.561 1.873 1.229 3.229.563 1.651 1.661 3.668.781 5.332zm0 0c.039.896-.775 1.458-.933 2.315-.521 1.762-1.499 3.306-1.561 5.285-.717 2.059-1.103 4.215-1.556 6.396-.68 1.075.066 2.175-.618 3.235.067.656-.133 1.369.165 1.895l-.165.148.165.17c.062.431-.128 1.326.163 1.841-.261 2.271.161 5.252-2.21 6.233-2.558 1.1-5.475.1-7.777-.938-1.227-1.001-.835-2.694-.897-4.183.556-1.832-.483-3.735.295-5.455-.169-.797.643-1.782-.295-2.332-2.072.582-3.853 1.853-6.092 2.008-1.583.488-3.403 1.006-5.115.787-2.502 0-5.131.219-7.609-.299-2.34-1.037-5.095-1.111-7.324-2.326-2.727-1.238-5.119-3.277-6.39-6.108.298-.425.099-.993.162-1.552-.188-.48-.707-.23-1.063-.289.684-.684.225-1.393.123-2.18-.516-.277-.384-.836-.612-1.248.395.152.688.479 1.1.479.657-.464-.188-1.235.159-1.729.106-.697-.249-1.196-.646-1.713.646-1.814-1.293-3.5.485-4.83-.386-1.168.852-2.105.622-3.398 2.492-1.854 2.234-5.387 5.273-6.878.23-.155.23-.383.329-.614.456-.062.911.74 1.229 0 .064-.621-.615-1.104-.159-1.721.484-1.395 2.099-1.621 2.814-2.779.649-.266 1.156.608 1.556-.337.391-.829-.229-2.226.937-2.618.104.293.393.102.623.161.127-1.76 2.355-.382 2.485-2.204 1.177-.41 2.076-1.552 3.115-2.34 1.91-1.095 2.754-3.812 5.124-3.879 2.425-1.725 5.729-2.693 8.711-1.699 2.594.43 4.341 2.596 6.058 4.516.939 2.992 2.847 6.711.776 9.787-1.395.527-2.594 2.072-4.338 1.271-3.016-1.628-2.04-7.487-6.551-6.229-8.778 4.021-15.58 12.58-20.826 20.521-.484 2.043-2.334 3.671-1.396 6.066 1.457 3.945 6.126 3.402 9.458 4.363 1.011 1.852 2.982.359 4.384.784 2.977 1.228 5.5-1.005 8.381-.476.65-1.078 1.98-.487 2.797-1.078 1.545-1.211 3.716-2.113 3.271-4.516-.622-1.123-1.459.1-2.179.133-4.345.85-9.099.738-13.054 2.5-1.229 0-2.267-.485-3.271-1.064-.328-1.048-.782-1.949-1.393-2.822 0-2.787-.461-6.162 2.493-7.3 7.296-2.649 15.74-2.392 23.322-4.37 2.074.034 4.307-.031 5.445 2.049.128 1.194 1.561 1.873 1.229 3.229.563 1.651 1.661 3.668.781 5.332z"/><g fill="#fff"><path opacity=".9" enable-background="new" d="M77.458 136.527c-35.675 0-64.698-29.021-64.698-64.69 0-35.674 29.023-64.694 64.698-64.694 35.672 0 64.693 29.021 64.693 64.694.003 35.669-29.021 64.69-64.693 64.69zm0-126.027c-33.819 0-61.336 27.516-61.336 61.336 0 33.816 27.517 61.331 61.336 61.331 33.818 0 61.333-27.515 61.333-61.331 0-33.82-27.512-61.336-61.333-61.336zM74.098 131.488c-35.673 0-64.695-29.022-64.695-64.696 0-35.672 29.022-64.692 64.695-64.692s64.695 29.021 64.695 64.692c0 35.673-29.022 64.696-64.695 64.696zm0-126.029c-33.82 0-61.334 27.514-61.334 61.332 0 33.82 27.514 61.337 61.334 61.337 33.817 0 61.334-27.517 61.334-61.337 0-33.818-27.516-61.332-61.334-61.332zM69.056 139.889c-35.676 0-64.697-29.021-64.697-64.691 0-35.677 29.021-64.698 64.697-64.698 35.672 0 64.692 29.021 64.692 64.697.001 35.671-29.02 64.692-64.692 64.692zm0-126.032c-33.821 0-61.336 27.518-61.336 61.338 0 33.818 27.515 61.332 61.336 61.332 33.816 0 61.331-27.514 61.331-61.332 0-33.821-27.514-61.338-61.331-61.338zM65.694 134.846c-35.672 0-64.694-29.019-64.694-64.692 0-35.674 29.022-64.695 64.694-64.695 35.675 0 64.696 29.021 64.696 64.695 0 35.673-29.023 64.692-64.696 64.692zm0-126.03c-33.818 0-61.332 27.518-61.332 61.338 0 33.818 27.514 61.332 61.332 61.332 33.82 0 61.334-27.514 61.334-61.332 0-33.821-27.514-61.338-61.334-61.338z"/></g><path fill="#fff" d="M99.292 75.139c.048 1.082-.938 1.76-1.125 2.795-.627 2.125-1.81 3.987-1.882 6.379-.866 2.482-1.329 5.086-1.876 7.717-.82 1.301.077 2.625-.746 3.906.081.793-.159 1.651.198 2.285l-.198.182.198.205c.071.52-.153 1.602.196 2.221-.313 2.74.192 6.339-2.669 7.521-3.086 1.328-6.604.121-9.386-1.131-1.48-1.209-1.007-3.254-1.084-5.048.667-2.21-.585-4.51.355-6.583-.206-.963.771-2.152-.355-2.814-2.504.703-4.651 2.234-7.354 2.422-1.911.594-4.107 1.216-6.176.951-3.019 0-6.189.265-9.187-.357-2.823-1.252-6.146-1.346-8.84-2.809-3.289-1.498-6.18-3.959-7.711-7.375.358-.515.119-1.201.196-1.873-.229-.584-.854-.278-1.283-.35.82-.824.271-1.68.146-2.629-.62-.337-.461-1.01-.739-1.506.478.184.831.574 1.326.574.795-.559-.229-1.49.193-2.081.129-.845-.302-1.446-.78-2.065.78-2.193-1.562-4.23.587-5.834-.464-1.406 1.025-2.539.752-4.102 3.008-2.237 2.696-6.504 6.367-8.303.277-.188.277-.461.396-.742.548-.071 1.101.896 1.481 0 .08-.75-.743-1.329-.19-2.076.584-1.68 2.531-1.954 3.397-3.354.785-.32 1.397.734 1.875-.406.474-1-.271-2.687 1.132-3.16.124.354.474.121.75.195.154-2.125 2.847-.461 3.004-2.66 1.418-.496 2.506-1.875 3.759-2.824 2.308-1.32 3.322-4.602 6.185-4.682 2.928-2.08 6.914-3.252 10.513-2.051 3.134.52 5.241 3.131 7.312 5.449 1.133 3.609 3.435 8.1.938 11.812-1.685.637-3.131 2.498-5.237 1.531-3.641-1.966-2.458-9.039-7.903-7.521-10.594 4.857-18.804 15.189-25.137 24.773-.584 2.467-2.815 4.43-1.683 7.321 1.757 4.763 7.392 4.104 11.414 5.269 1.222 2.231 3.602.432 5.292.944 3.59 1.479 6.638-1.213 10.113-.575.786-1.299 2.393-.586 3.374-1.299 1.865-1.462 4.484-2.551 3.95-5.449-.754-1.354-1.764.119-2.633.16-5.242 1.023-10.979.893-15.754 3.018-1.484 0-2.736-.588-3.948-1.287-.396-1.264-.942-2.352-1.68-3.401 0-3.364-.556-7.438 3.011-8.812 8.805-3.2 18.998-2.887 28.149-5.272 2.502.04 5.193-.04 6.572 2.472.151 1.441 1.879 2.262 1.479 3.896.685 1.989 2.009 4.422.946 6.433z"/><g fill="#fff"><path d="M193.866 124.303c-3.19 4.117-7.366 5.684-11.368 5.684-12.817 0-20.356-9.568-20.356-21.518 0-12.296 7.54-21.865 20.356-21.865 8.468 0 16.472 5.221 17.458 14.615h-8.7c-1.044-4.582-4.466-6.959-8.758-6.959-8.179 0-11.252 6.959-11.252 14.209 0 6.901 3.073 13.861 11.252 13.861 5.916 0 9.338-3.189 9.859-8.934h-9.164v-6.785h17.399v22.389h-5.8l-.926-4.697zM209.7 87.589h22.33c7.424 0 12.122 5.162 12.122 11.427 0 4.871-1.974 8.524-6.556 10.381v.117c4.468 1.159 5.742 5.51 6.032 9.686.174 2.609.116 7.48 1.74 9.803h-9.105c-1.102-2.609-.984-6.611-1.448-9.918-.64-4.352-2.32-6.266-6.902-6.266h-9.105v16.181h-9.104v-41.411h-.004zm9.106 18.733h9.978c4.06 0 6.264-1.738 6.264-5.916 0-4.002-2.204-5.74-6.264-5.74h-9.978v11.656zM253.317 87.589h30.971v7.656h-21.865v8.873h20.067v7.075h-20.067v10.148h22.329v7.659h-31.435v-41.411zM292.639 87.589h30.974v7.656h-21.866v8.873h20.066v7.075h-20.066v10.148h22.33v7.659h-31.438v-41.411zM331.962 87.589h9.048l17.283 27.781h.116v-27.781h8.523v41.411h-9.104l-17.228-27.725h-.114v27.725h-8.525v-41.411h.001zM416.12 129h-9.048l-7.021-28.188h-.114l-6.901 28.188h-9.222l-10.964-41.411h9.106l6.554 28.188h.115l7.192-28.188h8.523l7.076 28.535h.116l6.785-28.535h8.933l-11.13 41.411zM433.171 87.589h9.105v41.411h-9.105v-41.411zM452.024 87.589h22.327c7.426 0 12.122 5.162 12.122 11.427 0 4.871-1.972 8.524-6.554 10.381v.117c4.466 1.159 5.742 5.51 6.031 9.686.175 2.609.116 7.48 1.74 9.803h-9.105c-1.103-2.609-.986-6.611-1.45-9.918-.638-4.352-2.318-6.266-6.899-6.266h-9.106v16.181h-9.104l-.002-41.411zm9.103 18.733h9.977c4.062 0 6.266-1.738 6.266-5.916 0-4.002-2.204-5.74-6.266-5.74h-9.977v11.656zM495.637 87.589h30.974v7.656h-21.866v8.873h20.065v7.075h-20.065v10.148h22.33v7.659h-31.438v-41.411z"/></g></svg>