<svg xmlns="http://www.w3.org/2000/svg" width="55" height="76" viewBox="0 0 55 76"><circle fill="#fff" stroke="#ccc" stroke-miterlimit="10" cx="15.975" cy="18.705" r="6.5"/><g><circle fill="#fff" stroke="#ccc" stroke-miterlimit="10" cx="39.175" cy="19.305" r="6.5"/><circle fill="#4D4D4E" cx="39.075" cy="19.205" r="4"/></g><path fill="#fff" stroke="#ccc" stroke-miterlimit="10" d="M22.375 45.023c0 .598-.482 1.08-1.08 1.08h-10.54c-.597 0-1.08-.482-1.08-1.08v-10.541c0-.597.483-1.08 1.08-1.08h10.54c.598 0 1.08.483 1.08 1.08v10.541z"/><g stroke-miterlimit="10"><path fill="#fff" stroke="#ccc" d="M46.775 44.824c0 .597-.483 1.08-1.08 1.08h-10.541c-.596 0-1.079-.483-1.079-1.08v-10.54c0-.597.483-1.08 1.079-1.08h10.541c.597 0 1.08.483 1.08 1.08v10.54z"/><path stroke="#4D4D4D" stroke-width="2" stroke-linecap="round" stroke-linejoin="round" fill="none" d="M36.275 39.604l3.223 3.907 4.981-8.107"/></g><path fill="#4D4D4D" d="M10.775 60.661h11.02l-5.462-6.199z"/><path fill="#4D4D4D" d="M35.175 54.611h11.02l-5.463 6.2z"/></svg>