<svg xmlns="http://www.w3.org/2000/svg" width="273" height="259" viewBox="0 0 273 259"><circle fill="#fff" stroke="#ccc" stroke-miterlimit="10" cx="105.75" cy="80.75" r="16.25"/><g><circle fill="#fff" stroke="#ccc" stroke-miterlimit="10" cx="163.75" cy="82.25" r="16.25"/><circle fill="#4D4D4E" cx="163.5" cy="82" r="10"/></g><path fill="#fff" stroke="#ccc" stroke-miterlimit="10" d="M121.75 146.55c0 1.491-1.208 2.7-2.7 2.7h-26.35c-1.492 0-2.7-1.209-2.7-2.7v-26.35c0-1.492 1.208-2.7 2.7-2.7h26.35c1.492 0 2.7 1.208 2.7 2.7v26.35z"/><g stroke-miterlimit="10"><path fill="#fff" stroke="#ccc" d="M182.75 146.05c0 1.491-1.208 2.7-2.7 2.7h-26.35c-1.492 0-2.7-1.209-2.7-2.7v-26.35c0-1.492 1.208-2.7 2.7-2.7h26.35c1.492 0 2.7 1.208 2.7 2.7v26.35z"/><path stroke="#4D4D4D" stroke-width="3" stroke-linecap="round" stroke-linejoin="round" fill="none" d="M156.5 132.999l8.057 9.766 12.452-20.265"/></g><path fill="#4D4D4D" d="M92.75 193.14h27.55l-13.655-22.998z"/><path fill="#4D4D4D" d="M153.75 170.517h27.55l-13.655 22.998z"/></svg>