<?xml version="1.0" encoding="utf-8"?>
<!-- Generator: Adobe Illustrator 16.0.0, SVG Export Plug-In . SVG Version: 6.00 Build 0)  -->
<!DOCTYPE svg PUBLIC "-//W3C//DTD SVG 1.1//EN" "http://www.w3.org/Graphics/SVG/1.1/DTD/svg11.dtd">
<svg version="1.1" id="Layer_1" xmlns="http://www.w3.org/2000/svg" xmlns:xlink="http://www.w3.org/1999/xlink" x="0px" y="0px"
	 width="55px" height="76px" viewBox="0 0 55 76" enable-background="new 0 0 55 76" xml:space="preserve">
<circle id="radio" fill="#FFFFFF" stroke="#CCCCCC" stroke-miterlimit="10" cx="15.975" cy="18.705" r="6.5"/>
<g id="radioSelected">
	<circle fill="#FFFFFF" stroke="#CCCCCC" stroke-miterlimit="10" cx="39.175" cy="19.305" r="6.5"/>
	<circle fill="#4D4D4E" cx="39.075" cy="19.205" r="4"/>
</g>
<path id="checkbox" fill="#FFFFFF" stroke="#CCCCCC" stroke-miterlimit="10" d="M22.375,45.023c0,0.598-0.482,1.08-1.08,1.08h-10.54
	c-0.597,0-1.08-0.482-1.08-1.08V34.482c0-0.597,0.483-1.08,1.08-1.08h10.54c0.598,0,1.08,0.483,1.08,1.08V45.023z"/>
<g id="checkboxSelected">
	<path fill="#FFFFFF" stroke="#CCCCCC" stroke-miterlimit="10" d="M46.775,44.824c0,0.597-0.483,1.08-1.08,1.08H35.154
		c-0.596,0-1.079-0.483-1.079-1.08v-10.54c0-0.597,0.483-1.08,1.079-1.08h10.541c0.597,0,1.08,0.483,1.08,1.08V44.824z"/>
	
		<polyline fill="none" stroke="#4D4D4D" stroke-width="2" stroke-linecap="round" stroke-linejoin="round" stroke-miterlimit="10" points="
		36.275,39.604 39.498,43.511 44.479,35.404 	"/>
</g>
<polygon id="arrowUp" fill="#4D4D4D" points="10.775,60.661 21.795,60.661 16.333,54.462 "/>
<polygon id="arrowDown" fill="#4D4D4D" points="35.175,54.611 46.195,54.611 40.732,60.811 "/>
</svg>
