<?xml version="1.0" encoding="utf-8"?>
<!-- Generator: Adobe Illustrator 16.0.0, SVG Export Plug-In . SVG Version: 6.00 Build 0)  -->
<!DOCTYPE svg PUBLIC "-//W3C//DTD SVG 1.1//EN" "http://www.w3.org/Graphics/SVG/1.1/DTD/svg11.dtd">
<svg version="1.1" id="Laag_1" xmlns="http://www.w3.org/2000/svg" xmlns:xlink="http://www.w3.org/1999/xlink" x="0px" y="0px"
	 width="553px" height="142px" viewBox="0 0 553 142" enable-background="new 0 0 553 142" xml:space="preserve">
<path fill="#FFFFFF" d="M549.656,31.298c-1.434,0.228-2.598-0.293-3.732-0.788c-3.303-0.25-5.539,1.118-8.711,0.629
	c-6.223,0.489-12.514,0.777-18.35,2.18c-1.125-0.522-2.105,0.32-3.104,0.48c-2.03,1.076-2.293,3.172-2.977,4.954
	c0.477,1.033,1.256,0,2.039,0.319c3.948,0.07,8.555,0.812,11.814-1.23c1.365-0.349,2.076,0.911,3.117,1.403
	c1.719,2.142,3.014,4.472,3.105,7.289c-1.389,1.329,0.301,4.053-2.029,4.837c-1.525,0.414-3.023,1.009-4.508,1.552
	c-0.355,0.746,0.553,1.104,0.946,1.401c0.959,0,1.218,1.16,1.839,1.719c0,2.367,0.195,5.208-0.91,7.32
	c-0.771,0.459-1.426,0.936-2.031,1.559c-3.123,0.938-6.529,1.236-9.633,2.166c-3.113-0.062-6.123-0.415-9.033-0.93
	c-1.66-1.336-3.69-1.73-5.283-3.284c-1.328-0.872-1.104-2.524-2.502-3.241l-0.447-0.48c-1.646,3.693-3.688,8.853-8.391,9.168
	c-3.406,0.548-7.061-0.149-9.979-1.68c-6.35-1.945-12.34-6.072-16.771-11.228c-0.527-0.739-1.5-1.585-1.562-2.655l-1.236-1.557
	l-0.484,0.482c0.295,3.276-1.291,6.519,0.158,9.514c0,2.449-0.35,4.961-2.164,6.509c0.033,0.319-0.035,0.581-0.324,0.782
	c-2.852,0.188-5.602-0.553-6.988-3.273c-0.979-0.98-0.391-2.628-0.791-3.888c-0.275-2.177-0.098-4.771-0.158-6.847l-0.615-0.619
	c-3.988,0-7.74,0.463-11.334,1.4c-3.477,3.979-3.693,9.561-7.947,12.934c-0.891-0.064-1.023-1.625-2.326-1.107
	c-0.738-0.576-1.393-1.972-2.5-1.229c-2.035-3.766-1.006-8.371,1.555-11.537c3.051-3.336,2.18-8.508,4.994-11.811
	c0.648-0.158,1.209-0.873,1.553-1.43c2.465-4.189,4.432-8.588,6.68-12.9c2.428-3.468,4.793-7.326,8.258-9.941
	c1.775-0.617,3.402-0.227,5.123,0.294c3.27,3.719,5.605,7.837,5.893,12.764c1.266,2.533,0.553,5.866,1.426,8.563
	c1.629-0.979,1.162-3.09,2.799-4.219c0.312-1.938,2.326-2.822,2.943-4.664c3.523-2.008,6.414-4.568,10.271-5.746
	c4.205-2.037,8.938-3.203,13.824-3.112c1.359-0.771,2.666,0.462,3.885,0.944c0.885,1.137,1.592,2.334,2.658,3.396
	c1.559,4.36,2.627,10.425-0.928,14.179c-0.849,0.906-1.73,1.68-2.781,2.006c-2.9,0.071-5.492-0.838-7.336-2.949
	c0.154-2.035-1.127-3.952,0.453-5.607c0.42-0.771-0.098-1.566-0.117-2.335c-1.145-0.517-2.342,0.589-3.607,0.642
	c-2.973,0.656-5.09,2.539-7.449,4.676c-2.326,2.854-4.367,5.844-4.826,9.467c2.135,3.469,6.027,5.283,9.49,6.869
	c3.309,1.477,8.33,1.986,11.506-0.16c1.426-0.749,2.479-2.854,4.334-2.042c0.676,0.849,0.873,1.851,1.559,2.661l0.479-0.459
	c0.662-2.629-0.088-5.789,1.23-8.098c0.812-4.152,2.564-7.914,4.384-11.668c0-1.691-0.194-3.838,0.774-5.289
	c0.33-2.752,3.269-4.115,5.576-4.668c1.518-0.326,3.016-1.199,4.662-0.617c1.258-0.549,2.885-0.735,4.217-0.643
	c3.656-1.406,8.068-0.979,11.818-2.18c1.557,0.68,3.4,0.195,4.67-0.779c0.85-0.617,2.17-0.066,3.104-0.457
	c2.888,0,6.191-2.812,8.724,0c1.294,1.787,3.173,3.534,2.944,5.741c0.843,1.496-0.998,3.205,0.285,4.671
	C550.982,30.26,550.298,30.916,549.656,31.298L549.656,31.298z M451.066,34.087c0.389-0.676-0.098-1.321-0.169-2.006
	c-0.229-0.427-0.604-1.032-1.228-0.783c-0.582,0.261-0.199,0.882-0.473,1.224c-1.053,2.058-2.248,3.99-3.121,6.105
	c-0.154,0.818-1.369,1.788-0.459,2.457c1.655,0.169,3.145-0.191,4.674-0.443C451.943,38.848,451.031,36.395,451.066,34.087
	L451.066,34.087z M508.279,53.701c0.322,1.197,1.65,0.779,2.318,1.406c1.947,0.531,3.934,0.345,5.773,0.154
	c1.07-1.595,2.332,0.67,3.73-0.302c1.559-0.42,2.91-1.78,4.662-1.261c0.723,0.127,0.326-0.521,0.175-0.778
	c-1.952-0.388-4.257,0.165-6.077-0.458c-1.42,0.458-2.91-0.216-4.195,0C512.457,53.503,509.246,50.88,508.279,53.701L508.279,53.701
	z M434.898,23.842c0.619,0.266,1.456,1.275,0.291,1.689c0.031,0.879,0.977,1.707-0.158,2.336c-0.52,2.197-3.24,1.812-4.949,2.49
	c-4.9,1.23-9.955,1.981-14.949,2.959c-2.684,1.32-6.955,0.771-7.768,4.662c-0.031,0.815-1.162,1.133-0.938,2.053
	c2.455,1.9,5.08-0.399,7.936,0.16c1.879-0.562,3.881-0.857,5.764-1.438c1.299-0.479,2.269-2.171,3.723-1.858
	c0.359,0.985,1.535,1.604,2.007,2.521c0.034,1.838,1.851,3.132,1.106,5.119c0.771,1.488-0.776,2.744-1.395,4.043
	c-1.916,1.17-4.367,0.973-6.377,1.845c-2.434-0.772-4.475,0.779-6.707,0.486c-2.322,0.079-4.346,1.786-6.673,0.942
	c-1.747,0.644-4.728,0.228-4.825,2.947c1.584,2.729,4.885,3.189,7.932,2.624c2.561-1.104,5.244-1.909,7.773-3.101
	c2.467-0.399,3.045,2.457,4.057,3.879c0.252,3.672,0.07,7.556-3.6,9.212c-1.324,0.782-2.986,0.873-4.174,2.009
	c-1.691,0.26-3.219,0.139-4.836,0.327c-2.498-0.298-4.992-0.647-7.32-1.433c-0.488,0.231-1-0.314-1.557-0.44
	c-5.275-3.544-8.809-8.896-7.443-15.722c0.611-3.377,1.104-6.82,2.945-9.644c0-0.872,0.648-1.452,0.605-2.321
	c1.684-1.6,1.76-3.836,3.283-5.449c0.027-1.691,2.002-2.533,2.029-4.232c0.979-0.604,0.582-1.802,1.396-2.48
	c0.23-1.59,0.649-3.108,1.723-4.346c2.459-2.171,6.092-1.486,8.84-2.949c1.359-0.1,2.596-0.388,3.727-0.942
	c3.105,0.708,4.869-1.851,7.648-1.878c2.462-0.235,4.57-1.407,7.123-1.407c0.355,1.735,3.635,0.69,2.203,3.13
	c0.129,0.807,1.592,0.835,1.07,1.717c0.025,0.354-0.062,0.735,0.326,0.944c0.291-0.071,0.576,0.033,0.777,0.287
	C435.123,22.938,434.773,23.295,434.898,23.842L434.898,23.842z M397.705,33.316l-0.615,2.033c-0.703,1.072-1.131,2.309-2.172,3.276
	c-0.154,0.353,0.041,0.849-0.445,1.067c-0.848,0-1.652-0.062-2.199,0.619l0.156,0.492c-1.332-0.139-2.107,1-3.107,1.707
	c0.035,0.561,0.062,1.391-0.613,1.391c-0.326-0.062-0.525-0.482-0.941-0.311c-0.486,0.188-0.195,0.67,0,0.77
	c-1.945-0.032-3.049,2.054-5.115,1.724c-1.689,0.812-3.342,1.619-5.283,1.713l-0.488,0.464c-0.576,2.26-0.604,4.766-1.223,7
	c0.16,2.486-0.332,5.268-0.17,7.772c0.463,2.372-0.52,4.538-2.17,6.226c-1.301-0.843-2.271,1.465-3.438,0
	c-0.744-1.258-2.562-0.354-3.115-1.847c-1.742-2.69-1.87-6.64-1.064-9.83c-0.258-2.292,0.396-4.229,0.619-6.383
	c-0.719-1.33-2.652-1.06-3.111-2.624c-1.428-0.909-1.555-2.395-2.328-3.588c-0.586-1.861,1.035-3.213,0.773-5.127
	c1.104-1.109,2.014-3.28,4.047-2.672c3.055-0.506,1.229-4.426,2.18-6.512c0.191-0.681-0.268-1.166-0.787-1.393
	c-2.485,0.818-5.412,0.712-7.448,2.628c-2.104,0.292-4.47,0.388-5.763-1.718c-1.229,0.265-0.748,1.748-1.102,2.65
	c1.553,2.375,0.321,5.512,0.479,8.233c0.457,3.413-0.189,6.173-0.321,9.503c-0.688,1.303,0.071,3.213-0.616,4.521
	c-0.229,1.711,1.689,2.707,0.782,4.523c0.45,3.4-0.521,6.619-2.166,9.344c-0.813-0.109-1.491,0.022-2.048,0.612
	c-2.23-0.724-5.252,0.841-6.064-2.336c-2.777-3.048-0.67-8.142-4.168-10.899c-1.529-2.586-3.5-4.98-4.537-7.775
	c-1.008-0.612-1.074-2.07-2.334-2.16c-1.16,3.729-2.07,7.572-2.787,11.504c0.391,2.492,0.063,5.479-0.937,7.775
	c-0.868,0.914-1.815,2.07-3.108,1.236c-1.26-0.845-3.174-0.193-4.342-1.236c-3.271-2.528-2.332-7.449-1.396-10.896
	c0.916-5.479,2.564-10.63,2.953-16.34c0.486-2.229-0.42-5.051,0.775-7.001c-0.384-1.293-1.494-2.647-0.611-4.052
	c-0.553-1.67,0.358-3.34-0.164-4.984c0.188-2.37,2.883-4.129,4.826-4.964c1.903,1.164,4.791,0.681,6.051,2.782
	c1.688,3.113,0.556,7.371,1.562,10.738c-0.56,2.133,1.423,3.231,2.171,4.823c2.264,2.655,4.207,5.481,6.221,8.267
	c1.295-0.844,0.024-3.01,1.096-4.039c0.199-0.107,0.492-0.584,0-0.785c-0.264-1.467,0.455-2.891,0-4.061
	c0.104-1.713-0.264-3.435,0.295-5.119c0.91-3.371-0.096-7.551,1.555-10.604c0.582-0.777,1.717-0.132,2.336-0.777
	c1.91,0.387,3.973,1.627,4.66,3.608c0.32,0.862-0.121,2.358,1.104,2.623c0.744-1.161,0.91-2.854,2.492-3.406
	c0.903-0.301,1.744,0.574,2.467-0.161c-0.076-1.066,0.578-1.717,1.555-1.887c1.715,0.777,3.496-1.523,4.824,0.17
	c0.902,0.223,1.75,0.712,2.5-0.17c0.732-0.066,1.354-0.457,2.002-0.777l-0.164-0.613c0.941,0.131,1.553-0.905,2.494-0.315
	c0.234,0.733,1.107,0.958,1.729,0.638c1.193-1.271,3.17,1.24,4.213-0.935c0.42,0.265,0.801,0.612,1.389,0.45
	c0.594-0.063,1.424,0.104,2.017,0.482c2.429-0.609,4.659,1.143,6.993,0.293c0.32,0.424,0.482,0.92,0.934,1.27
	c1.207,0.515,2.471-0.559,3.271,0.9c0.689,1.58,2.234,2.401,2.787,4.062c1.002,0.904,0.908,2.229,1.553,3.266
	C397.781,29.906,397.734,31.33,397.705,33.316L397.705,33.316z M386.21,29.419c-3.274-0.782-6.838-1.782-10.396-0.899v1.227
	c1.129,1.623,0.678,3.895,1.232,5.775l0.445,0.443c1.162,0.041,2.332,0.064,3.109-0.777c1.809-0.062,3.006-1.549,4.533-2.336
	C386.337,32.146,387.662,30.65,386.21,29.419L386.21,29.419z M317.953,22.12c1.295,0.884,1.783,2.405,2.652,3.569
	c-0.227,1.359-0.188,2.828-0.611,4.055c-1.398,1.203-3.626,0.289-5.319,0.766c-1.753-0.047-3.294,0.788-4.943,0.471
	c-1.889,0.938-4.966,0-6.847,1.412c-2.04-0.149-3.982,0.629-4.983,2.352c0.319,1.713-3.207,2.751-1.395,4.171
	c4.338-0.681,8.844-0.872,12.434-3.394c0.948-0.27,1.271,0.951,2.174,0.772c2.105,1.332,2.177,3.828,3.562,5.577
	c-0.062,2.031,0.49,4.566-1.841,5.445c-2.623,1.004-5.284,1.808-8.106,2.33c-1.026,0-2.753-0.74-3.397,0.656
	c-1.616,0.413-3.721-0.302-5.149,0.604c-1.718-0.52-2.949,1.143-4.827,0.777c-0.772,0.592-1.07,1.364-0.902,2.34
	c1.388,1.652,3.721,1.721,5.889,1.848c2.466-0.713,5.023,0.302,7.005-1.549c0.676-0.523,1.299-1.688,2.168-1.235
	c1.852,2.101,3.857,4.146,3.893,6.997c-0.288,2.012,0.127,4.312-1.559,5.773c-1.421,0.687-2.49,2.232-4.338,1.848
	c-0.781,0.581-1.597,1.554-2.66,0.943c-0.479-0.453-1.196-0.883-1.845-0.453l-0.327,0.291l0.327,0.315
	c-1.393,0.784-2.104-1.489-3.601-0.485c-1.614-0.314-3.344-0.44-4.656-1.543c-1.625,0.383-2.624-0.76-3.885-1.25
	c-1.33-0.83-1.763-2.584-2.635-3.883c-1.488-1.029-0.877-3.181-2.334-4.342c-1.812-5.99,1.07-11.607,1.846-17.271
	c0.979-2.34,1.692-4.778,3.604-6.715c0.778-3.25-0.756-7.879,3.106-9.476c2.746,0.134,4.472-2.788,7.452-1.722
	c1.907-0.389,3.625-1.197,5.76-1.104c1.886-1.229,4.44-0.773,6.513-1.554c2.688-0.457,6.091-0.778,7.943,1.718
	C318.05,21.512,318.246,21.895,317.953,22.12L317.953,22.12z M283.906,29.419l-3.439,1.437c-1.065-0.139-1.751-0.069-2.624,0.442
	c-2.458,0.747-5.375,0.33-7.609,1.554c-1.979,0.17-3.763,0.854-5.604,1.235c-1.198,0.584-2.918,0.584-3.438,2.207
	c0.23,1.071-1.159,2.04,0,2.951c2.143,0.838,3.729-0.911,5.771-0.332c1.911-1.071,4.336-0.995,6.374-1.847
	c1.754,0.039,3.146,1.205,4.182,2.629c0.134,0.617,0.357,1.195,0.785,1.72c0.548,1.688,0.124,3.756,1.099,5.284
	c0.196,1.006-0.915,1.164-1.394,1.707c-2.105,0.373-4.151,1.213-6.22,1.109c-2.042,0-4.604-0.156-6.383,0.627
	c-2.527,0.127-4.795,0.924-7.324,1.059c-0.745,0.785-0.967,1.947-0.607,2.99c1.804,1.127,3.949,1.554,6.051,2.006
	c2.429,0.553,3.794-1.463,5.77-2.006c1.838,0.916,2.496,2.883,3.724,4.332c0.91,2.99,0.618,6.666-2,8.729
	c-1.49,1.266-3.731,0.686-5.312,1.723c-2.116,0-4.029-0.486-5.745-1.431c-1.329-0.062-2.323-0.974-3.591-1.229
	c-1.293-0.558-2.653-0.974-3.886-1.719c-3.696-2.892-5.05-7.199-4.79-11.674c-0.487-0.873-0.14-2.236,0-3.273
	c0.511-3.303,1.747-6.352,3.104-9.334c0-1.24,0.879-2.137,0.783-3.42c-2.724-1.608-3.178-4.397-3.107-7.312
	c0.089-1.816,0.97-3.465,2.324-4.663c1.267-1.495,3.696-0.202,4.961-1.724c1.939-0.771,4.141-0.899,6.06-1.684
	c1.74,0.102,3.106-0.748,4.656-1.109c2.821-0.391,5.511-1.006,8.102-1.867c2.107,0.381,4.706-0.911,6.219,1.255l1.399,2.506
	c0.188,0,0.392-0.071,0.488,0.128c-0.393,1.778,1.161,3.176,1.549,4.814C284.58,27.953,284.226,28.812,283.906,29.419
	L283.906,29.419z M240.809,38.145c0.105,1.608-0.962,2.724-1.226,4.211c-1.227,1.361-1.618,3.277-3.262,4.347
	c-0.106,0.577-1.168,0.776-0.784,1.562c3.397,4.92,12.63,5.146,11.045,12.764c-1.486,1.851-2.784,3.959-4.497,5.615
	c-1.491-0.357-3.209-0.586-4.672-0.48c-3.661-4.831-8.748-8.764-13.541-12.133c-0.454-0.387-0.296-1.297-1.072-1.27
	c-1.451,0.788-0.708,2.432-1.545,3.44c0.188,3.265,0.866,6.358,0.605,9.784c-0.285,1.176-1.269,2.279-2.33,2.82
	c-2.432,0.194-4.467-0.711-5.926-2.49c-3.466-4.869,0.062-10.899-0.615-16.34c-1.849-1.521-2.366-3.767-1.849-6.07
	c-0.392-0.705-0.17-1.28,0-2.031c1.455-0.064,0.521-1.947,2.009-2.008c1.073,0.094,2.209-0.051,2.664-1.11
	c0.411-2.651,1.545-5.091,2.001-7.772c0.42-1.111-0.938-1.234-1.387-1.853c-1.432-1.198-1.269-3.241-1.269-4.827
	c0.549-0.736-0.133-1.877,0.938-2.496c-0.591-1.104,1.136-1.752,1.554-2.5c0.48-0.59,0.877-1.062,1.558-1.682
	c0.705,0.053,1.169-0.876,1.885-0.33c1.998,0.028,3.616-1.33,5.728-0.613c1.979-0.867,3.957,0.166,5.604,0.943
	c2.011,0.58,4.109,2.166,4.986,4.182c0.943,0.619,0.748,1.963,1.845,2.65c-0.128,0.361,0.452,0.662,0,0.943
	c1.198,1.746,2.183,3.631,2.206,5.898c0.519,1.521,0.323,3.543,0.13,5.125C241.495,37.068,241.273,37.659,240.809,38.145
	L240.809,38.145z M231.803,29.744c-1.222-1.426-2.911-2.984-4.98-2.335c0.684,4.114-0.779,7.715-1.387,11.504
	c0.123,0.293,0.419,0.101,0.605,0.159c2.558-0.963,5.475-3.723,6.227-6.375l-0.134-0.178
	C232.784,31.689,232.233,30.553,231.803,29.744L231.803,29.744z M209.261,48.751c0.039,0.896-0.775,1.458-0.933,2.315
	c-0.521,1.762-1.499,3.306-1.561,5.285c-0.717,2.059-1.103,4.215-1.556,6.396c-0.68,1.075,0.066,2.175-0.618,3.235
	c0.067,0.656-0.133,1.369,0.165,1.895l-0.165,0.148l0.165,0.17c0.062,0.431-0.128,1.326,0.163,1.841
	c-0.261,2.271,0.161,5.252-2.21,6.233c-2.558,1.1-5.475,0.1-7.777-0.938c-1.227-1.001-0.835-2.694-0.897-4.183
	c0.556-1.832-0.483-3.735,0.295-5.455c-0.169-0.797,0.643-1.782-0.295-2.332c-2.072,0.582-3.853,1.853-6.092,2.008
	c-1.583,0.488-3.403,1.006-5.115,0.787c-2.502,0-5.131,0.219-7.609-0.299c-2.34-1.037-5.095-1.111-7.324-2.326
	c-2.727-1.238-5.119-3.277-6.39-6.108c0.298-0.425,0.099-0.993,0.162-1.552c-0.188-0.48-0.707-0.23-1.063-0.289
	c0.684-0.684,0.225-1.393,0.123-2.18c-0.516-0.277-0.384-0.836-0.612-1.248c0.395,0.152,0.688,0.479,1.1,0.479
	c0.657-0.464-0.188-1.235,0.159-1.729c0.106-0.697-0.249-1.196-0.646-1.713c0.646-1.814-1.293-3.5,0.485-4.83
	c-0.386-1.168,0.852-2.105,0.622-3.398c2.492-1.854,2.234-5.387,5.273-6.878c0.23-0.155,0.23-0.383,0.329-0.614
	c0.456-0.062,0.911,0.74,1.229,0c0.064-0.621-0.615-1.104-0.159-1.721c0.484-1.395,2.099-1.621,2.814-2.779
	c0.649-0.266,1.156,0.608,1.556-0.337c0.391-0.829-0.229-2.226,0.937-2.618c0.104,0.293,0.393,0.102,0.623,0.161
	c0.127-1.76,2.355-0.382,2.485-2.204c1.177-0.41,2.076-1.552,3.115-2.34c1.91-1.095,2.754-3.812,5.124-3.879
	c2.425-1.725,5.729-2.693,8.711-1.699c2.594,0.43,4.341,2.596,6.058,4.516c0.939,2.992,2.847,6.711,0.776,9.787
	c-1.395,0.527-2.594,2.072-4.338,1.271c-3.016-1.628-2.04-7.487-6.551-6.229c-8.778,4.021-15.58,12.58-20.826,20.521
	c-0.484,2.043-2.334,3.671-1.396,6.066c1.457,3.945,6.126,3.402,9.458,4.363c1.011,1.852,2.982,0.359,4.384,0.784
	c2.977,1.228,5.5-1.005,8.381-0.476c0.65-1.078,1.98-0.487,2.797-1.078c1.545-1.211,3.716-2.113,3.271-4.516
	c-0.622-1.123-1.459,0.1-2.179,0.133c-4.345,0.85-9.099,0.738-13.054,2.5c-1.229,0-2.267-0.485-3.271-1.064
	c-0.328-1.048-0.782-1.949-1.393-2.822c0-2.787-0.461-6.162,2.493-7.3c7.296-2.649,15.74-2.392,23.322-4.37
	c2.074,0.034,4.307-0.031,5.445,2.049c0.128,1.194,1.561,1.873,1.229,3.229C209.043,45.07,210.141,47.087,209.261,48.751
	L209.261,48.751z M209.261,48.751c0.039,0.896-0.775,1.458-0.933,2.315c-0.521,1.762-1.499,3.306-1.561,5.285
	c-0.717,2.059-1.103,4.215-1.556,6.396c-0.68,1.075,0.066,2.175-0.618,3.235c0.067,0.656-0.133,1.369,0.165,1.895l-0.165,0.148
	l0.165,0.17c0.062,0.431-0.128,1.326,0.163,1.841c-0.261,2.271,0.161,5.252-2.21,6.233c-2.558,1.1-5.475,0.1-7.777-0.938
	c-1.227-1.001-0.835-2.694-0.897-4.183c0.556-1.832-0.483-3.735,0.295-5.455c-0.169-0.797,0.643-1.782-0.295-2.332
	c-2.072,0.582-3.853,1.853-6.092,2.008c-1.583,0.488-3.403,1.006-5.115,0.787c-2.502,0-5.131,0.219-7.609-0.299
	c-2.34-1.037-5.095-1.111-7.324-2.326c-2.727-1.238-5.119-3.277-6.39-6.108c0.298-0.425,0.099-0.993,0.162-1.552
	c-0.188-0.48-0.707-0.23-1.063-0.289c0.684-0.684,0.225-1.393,0.123-2.18c-0.516-0.277-0.384-0.836-0.612-1.248
	c0.395,0.152,0.688,0.479,1.1,0.479c0.657-0.464-0.188-1.235,0.159-1.729c0.106-0.697-0.249-1.196-0.646-1.713
	c0.646-1.814-1.293-3.5,0.485-4.83c-0.386-1.168,0.852-2.105,0.622-3.398c2.492-1.854,2.234-5.387,5.273-6.878
	c0.23-0.155,0.23-0.383,0.329-0.614c0.456-0.062,0.911,0.74,1.229,0c0.064-0.621-0.615-1.104-0.159-1.721
	c0.484-1.395,2.099-1.621,2.814-2.779c0.649-0.266,1.156,0.608,1.556-0.337c0.391-0.829-0.229-2.226,0.937-2.618
	c0.104,0.293,0.393,0.102,0.623,0.161c0.127-1.76,2.355-0.382,2.485-2.204c1.177-0.41,2.076-1.552,3.115-2.34
	c1.91-1.095,2.754-3.812,5.124-3.879c2.425-1.725,5.729-2.693,8.711-1.699c2.594,0.43,4.341,2.596,6.058,4.516
	c0.939,2.992,2.847,6.711,0.776,9.787c-1.395,0.527-2.594,2.072-4.338,1.271c-3.016-1.628-2.04-7.487-6.551-6.229
	c-8.778,4.021-15.58,12.58-20.826,20.521c-0.484,2.043-2.334,3.671-1.396,6.066c1.457,3.945,6.126,3.402,9.458,4.363
	c1.011,1.852,2.982,0.359,4.384,0.784c2.977,1.228,5.5-1.005,8.381-0.476c0.65-1.078,1.98-0.487,2.797-1.078
	c1.545-1.211,3.716-2.113,3.271-4.516c-0.622-1.123-1.459,0.1-2.179,0.133c-4.345,0.85-9.099,0.738-13.054,2.5
	c-1.229,0-2.267-0.485-3.271-1.064c-0.328-1.048-0.782-1.949-1.393-2.822c0-2.787-0.461-6.162,2.493-7.3
	c7.296-2.649,15.74-2.392,23.322-4.37c2.074,0.034,4.307-0.031,5.445,2.049c0.128,1.194,1.561,1.873,1.229,3.229
	C209.043,45.07,210.141,47.087,209.261,48.751L209.261,48.751z"/>
<g>
	<path opacity="0.9" fill="#FFFFFF" enable-background="new    " d="M77.458,136.527c-35.675,0-64.698-29.021-64.698-64.69
		c0-35.674,29.023-64.694,64.698-64.694c35.672,0,64.693,29.021,64.693,64.694C142.154,107.506,113.13,136.527,77.458,136.527z
		 M77.458,10.5c-33.819,0-61.336,27.516-61.336,61.336c0,33.816,27.517,61.331,61.336,61.331c33.818,0,61.333-27.515,61.333-61.331
		C138.791,38.016,111.279,10.5,77.458,10.5z"/>
	<path opacity="0.9" fill="#FFFFFF" enable-background="new    " d="M74.098,131.488c-35.673,0-64.695-29.022-64.695-64.696
		C9.403,31.12,38.425,2.1,74.098,2.1s64.695,29.021,64.695,64.692C138.793,102.465,109.771,131.488,74.098,131.488z M74.098,5.459
		c-33.82,0-61.334,27.514-61.334,61.332c0,33.82,27.514,61.337,61.334,61.337c33.817,0,61.334-27.517,61.334-61.337
		C135.432,32.973,107.916,5.459,74.098,5.459z"/>
	<path opacity="0.9" fill="#FFFFFF" enable-background="new    " d="M69.056,139.889c-35.676,0-64.697-29.021-64.697-64.691
		C4.359,39.521,33.38,10.5,69.056,10.5c35.672,0,64.692,29.021,64.692,64.697C133.749,110.868,104.728,139.889,69.056,139.889z
		 M69.056,13.857c-33.821,0-61.336,27.518-61.336,61.338c0,33.818,27.515,61.332,61.336,61.332
		c33.816,0,61.331-27.514,61.331-61.332C130.387,41.374,102.873,13.857,69.056,13.857z"/>
	<path opacity="0.9" fill="#FFFFFF" enable-background="new    " d="M65.694,134.846C30.022,134.846,1,105.827,1,70.154
		C1,34.48,30.022,5.459,65.694,5.459c35.675,0,64.696,29.021,64.696,64.695C130.39,105.827,101.367,134.846,65.694,134.846z
		 M65.694,8.816c-33.818,0-61.332,27.518-61.332,61.338c0,33.818,27.514,61.332,61.332,61.332c33.82,0,61.334-27.514,61.334-61.332
		C127.028,36.333,99.514,8.816,65.694,8.816z"/>
</g>
<path fill="#FFFFFF" d="M99.292,75.139c0.048,1.082-0.938,1.76-1.125,2.795c-0.627,2.125-1.81,3.987-1.882,6.379
	c-0.866,2.482-1.329,5.086-1.876,7.717c-0.82,1.301,0.077,2.625-0.746,3.906c0.081,0.793-0.159,1.651,0.198,2.285l-0.198,0.182
	l0.198,0.205c0.071,0.52-0.153,1.602,0.196,2.221c-0.313,2.74,0.192,6.339-2.669,7.521c-3.086,1.328-6.604,0.121-9.386-1.131
	c-1.48-1.209-1.007-3.254-1.084-5.048c0.667-2.21-0.585-4.51,0.355-6.583c-0.206-0.963,0.771-2.152-0.355-2.814
	c-2.504,0.703-4.651,2.234-7.354,2.422c-1.911,0.594-4.107,1.216-6.176,0.951c-3.019,0-6.189,0.265-9.187-0.357
	c-2.823-1.252-6.146-1.346-8.84-2.809c-3.289-1.498-6.18-3.959-7.711-7.375c0.358-0.515,0.119-1.201,0.196-1.873
	c-0.229-0.584-0.854-0.278-1.283-0.35c0.82-0.824,0.271-1.68,0.146-2.629c-0.62-0.337-0.461-1.01-0.739-1.506
	c0.478,0.184,0.831,0.574,1.326,0.574c0.795-0.559-0.229-1.49,0.193-2.081c0.129-0.845-0.302-1.446-0.78-2.065
	c0.78-2.193-1.562-4.23,0.587-5.834c-0.464-1.406,1.025-2.539,0.752-4.102c3.008-2.237,2.696-6.504,6.367-8.303
	c0.277-0.188,0.277-0.461,0.396-0.742c0.548-0.071,1.101,0.896,1.481,0c0.08-0.75-0.743-1.329-0.19-2.076
	c0.584-1.68,2.531-1.954,3.397-3.354c0.785-0.32,1.397,0.734,1.875-0.406c0.474-1-0.271-2.687,1.132-3.16
	c0.124,0.354,0.474,0.121,0.75,0.195c0.154-2.125,2.847-0.461,3.004-2.66c1.418-0.496,2.506-1.875,3.759-2.824
	c2.308-1.32,3.322-4.602,6.185-4.682c2.928-2.08,6.914-3.252,10.513-2.051c3.134,0.52,5.241,3.131,7.312,5.449
	c1.133,3.609,3.435,8.1,0.938,11.812c-1.685,0.637-3.131,2.498-5.237,1.531c-3.641-1.966-2.458-9.039-7.903-7.521
	C65.233,51.805,57.023,62.137,50.69,71.721c-0.584,2.467-2.815,4.43-1.683,7.321c1.757,4.763,7.392,4.104,11.414,5.269
	c1.222,2.231,3.602,0.432,5.292,0.944c3.59,1.479,6.638-1.213,10.113-0.575c0.786-1.299,2.393-0.586,3.374-1.299
	c1.865-1.462,4.484-2.551,3.95-5.449c-0.754-1.354-1.764,0.119-2.633,0.16c-5.242,1.023-10.979,0.893-15.754,3.018
	c-1.484,0-2.736-0.588-3.948-1.287c-0.396-1.264-0.942-2.352-1.68-3.401c0-3.364-0.556-7.438,3.011-8.812
	c8.805-3.2,18.998-2.887,28.149-5.272c2.502,0.04,5.193-0.04,6.572,2.472c0.151,1.441,1.879,2.262,1.479,3.896
	C99.031,70.695,100.355,73.128,99.292,75.139L99.292,75.139z"/>
<g>
	<path fill="#FFFFFF" d="M193.866,124.303c-3.19,4.117-7.366,5.684-11.368,5.684c-12.817,0-20.356-9.568-20.356-21.518
		c0-12.296,7.54-21.865,20.356-21.865c8.468,0,16.472,5.221,17.458,14.615h-8.7c-1.044-4.582-4.466-6.959-8.758-6.959
		c-8.179,0-11.252,6.959-11.252,14.209c0,6.901,3.073,13.861,11.252,13.861c5.916,0,9.338-3.189,9.859-8.934h-9.164v-6.785h17.399
		V129h-5.8L193.866,124.303z"/>
	<path fill="#FFFFFF" d="M209.7,87.589h22.33c7.424,0,12.122,5.162,12.122,11.427c0,4.871-1.974,8.524-6.556,10.381v0.117
		c4.468,1.159,5.742,5.51,6.032,9.686c0.174,2.609,0.116,7.48,1.74,9.803h-9.105c-1.102-2.609-0.984-6.611-1.448-9.918
		c-0.64-4.352-2.32-6.266-6.902-6.266h-9.105V129h-9.104V87.589H209.7z M218.806,106.322h9.978c4.06,0,6.264-1.738,6.264-5.916
		c0-4.002-2.204-5.74-6.264-5.74h-9.978V106.322z"/>
	<path fill="#FFFFFF" d="M253.317,87.589h30.971v7.656h-21.865v8.873h20.067v7.075h-20.067v10.148h22.329V129h-31.435V87.589
		L253.317,87.589z"/>
	<path fill="#FFFFFF" d="M292.639,87.589h30.974v7.656h-21.866v8.873h20.066v7.075h-20.066v10.148h22.33V129h-31.438V87.589
		L292.639,87.589z"/>
	<path fill="#FFFFFF" d="M331.962,87.589h9.048l17.283,27.781h0.116V87.589h8.523V129h-9.104l-17.228-27.725h-0.114V129h-8.525
		V87.589L331.962,87.589z"/>
	<path fill="#FFFFFF" d="M416.12,129h-9.048l-7.021-28.188h-0.114L393.036,129h-9.222l-10.964-41.411h9.106l6.554,28.188h0.115
		l7.192-28.188h8.523l7.076,28.535h0.116l6.785-28.535h8.933L416.12,129z"/>
	<path fill="#FFFFFF" d="M433.171,87.589h9.105V129h-9.105V87.589z"/>
	<path fill="#FFFFFF" d="M452.024,87.589h22.327c7.426,0,12.122,5.162,12.122,11.427c0,4.871-1.972,8.524-6.554,10.381v0.117
		c4.466,1.159,5.742,5.51,6.031,9.686c0.175,2.609,0.116,7.48,1.74,9.803h-9.105c-1.103-2.609-0.986-6.611-1.45-9.918
		c-0.638-4.352-2.318-6.266-6.899-6.266h-9.106V129h-9.104L452.024,87.589L452.024,87.589z M461.127,106.322h9.977
		c4.062,0,6.266-1.738,6.266-5.916c0-4.002-2.204-5.74-6.266-5.74h-9.977V106.322z"/>
	<path fill="#FFFFFF" d="M495.637,87.589h30.974v7.656h-21.866v8.873h20.065v7.075h-20.065v10.148h22.33V129h-31.438V87.589z"/>
</g>
</svg>
