<svg xmlns="http://www.w3.org/2000/svg" width="553" height="142" viewBox="0 0 553 142"><path fill="#FFF" d="M549.656 31.298c-1.434.228-2.598-.293-3.732-.788-3.303-.25-5.54 1.118-8.71.63-6.224.488-12.515.776-18.35 2.18-1.126-.523-2.106.32-3.105.48-2.03 1.075-2.295 3.17-2.98 4.953.478 1.033 1.257 0 2.04.32 3.948.07 8.555.81 11.814-1.23 1.365-.35 2.076.91 3.117 1.402 1.72 2.142 3.015 4.472 3.106 7.29-1.39 1.328.3 4.052-2.03 4.836-1.524.416-3.022 1.01-4.507 1.554-.356.746.552 1.104.945 1.4.96 0 1.218 1.16 1.84 1.72 0 2.367.194 5.208-.91 7.32-.772.46-1.427.936-2.032 1.56-3.123.937-6.53 1.235-9.633 2.165-3.112-.063-6.122-.416-9.032-.93-1.66-1.337-3.69-1.73-5.283-3.285-1.328-.872-1.104-2.524-2.502-3.24l-.447-.48c-1.646 3.692-3.688 8.852-8.39 9.167-3.407.55-7.062-.148-9.98-1.68-6.35-1.944-12.34-6.07-16.77-11.227-.528-.74-1.5-1.585-1.563-2.655l-1.236-1.557-.484.483c.295 3.276-1.29 6.52.158 9.514 0 2.45-.35 4.96-2.162 6.51.033.318-.035.58-.324.78-2.852.19-5.602-.552-6.988-3.272-.98-.98-.39-2.628-.79-3.888-.276-2.177-.1-4.77-.16-6.847l-.614-.62c-3.987 0-7.74.464-11.333 1.4-3.478 3.98-3.694 9.562-7.948 12.935-.89-.064-1.023-1.625-2.326-1.107-.738-.575-1.393-1.97-2.5-1.23-2.035-3.764-1.006-8.37 1.555-11.535 3.05-3.336 2.18-8.508 4.994-11.81.648-.16 1.21-.874 1.553-1.43 2.465-4.19 4.432-8.59 6.68-12.9 2.428-3.47 4.793-7.327 8.258-9.942 1.775-.617 3.402-.227 5.123.294 3.27 3.72 5.605 7.837 5.893 12.764 1.267 2.534.554 5.867 1.427 8.564 1.63-.978 1.162-3.09 2.8-4.218.31-1.938 2.325-2.822 2.942-4.664 3.522-2.008 6.413-4.568 10.27-5.746 4.205-2.037 8.94-3.203 13.824-3.112 1.36-.77 2.666.462 3.885.944.884 1.137 1.59 2.334 2.657 3.396 1.56 4.36 2.627 10.425-.928 14.18-.85.905-1.73 1.68-2.78 2.005-2.9.07-5.494-.84-7.338-2.95.155-2.035-1.126-3.95.454-5.607.42-.772-.098-1.567-.117-2.336-1.146-.517-2.343.59-3.608.642-2.973.655-5.09 2.54-7.45 4.675-2.325 2.854-4.366 5.844-4.825 9.467 2.135 3.468 6.027 5.282 9.49 6.868 3.31 1.477 8.33 1.986 11.506-.16 1.427-.75 2.48-2.854 4.335-2.042.676.85.873 1.85 1.56 2.66l.478-.458c.662-2.63-.088-5.79 1.23-8.098.812-4.152 2.564-7.914 4.384-11.668 0-1.69-.194-3.838.774-5.29.33-2.75 3.27-4.114 5.577-4.667 1.52-.326 3.017-1.2 4.663-.617 1.257-.55 2.884-.735 4.216-.643 3.655-1.406 8.067-.98 11.817-2.18 1.557.68 3.4.195 4.67-.78.85-.616 2.17-.065 3.104-.456 2.89 0 6.19-2.812 8.725 0 1.294 1.787 3.173 3.534 2.944 5.74.842 1.497-1 3.206.284 4.67.102.84-.582 1.497-1.224 1.88zm-98.59 2.79c.39-.677-.098-1.322-.17-2.007-.228-.425-.603-1.03-1.227-.78-.584.26-.2.88-.475 1.223-1.053 2.058-2.248 3.99-3.12 6.105-.155.818-1.37 1.788-.46 2.457 1.655.17 3.145-.19 4.674-.443 1.652-1.792.74-4.245.775-6.553zM508.28 53.7c.32 1.198 1.65.78 2.317 1.407 1.947.53 3.934.345 5.773.154 1.07-1.593 2.332.67 3.73-.3 1.56-.42 2.91-1.78 4.662-1.26.723.126.326-.52.175-.78-1.952-.387-4.257.166-6.077-.457-1.42.458-2.91-.216-4.195 0-2.208 1.04-5.42-1.582-6.386 1.24zm-73.382-29.858c.62.266 1.456 1.275.29 1.69.032.878.978 1.706-.157 2.335-.52 2.197-3.24 1.812-4.947 2.49-4.9 1.23-9.955 1.98-14.95 2.96-2.683 1.32-6.954.77-7.767 4.66-.03.816-1.162 1.134-.938 2.054 2.455 1.9 5.08-.397 7.936.16 1.88-.56 3.88-.855 5.764-1.436 1.3-.48 2.27-2.17 3.723-1.858.36.985 1.536 1.604 2.008 2.52.034 1.84 1.85 3.133 1.106 5.12.77 1.488-.776 2.744-1.395 4.043-1.917 1.17-4.368.972-6.378 1.844-2.433-.772-4.474.78-6.706.486-2.322.078-4.346 1.785-6.673.94-1.746.645-4.727.23-4.824 2.948 1.583 2.73 4.884 3.19 7.93 2.624 2.56-1.104 5.245-1.91 7.774-3.1 2.468-.4 3.046 2.456 4.058 3.878.252 3.672.07 7.556-3.6 9.212-1.324.782-2.986.873-4.174 2.01-1.69.26-3.22.138-4.836.326-2.498-.298-4.992-.647-7.32-1.433-.488.23-1-.314-1.557-.44-5.274-3.544-8.808-8.896-7.442-15.722.61-3.377 1.104-6.82 2.945-9.644 0-.874.648-1.454.605-2.323 1.684-1.6 1.76-3.836 3.283-5.45.028-1.69 2.003-2.532 2.03-4.23.98-.605.582-1.803 1.396-2.48.23-1.59.65-3.11 1.723-4.347 2.458-2.17 6.09-1.485 8.84-2.948 1.358-.1 2.595-.388 3.726-.942 3.106.708 4.87-1.85 7.65-1.878 2.46-.235 4.57-1.407 7.122-1.407.355 1.735 3.635.69 2.203 3.13.13.807 1.592.835 1.07 1.717.025.354-.062.735.326.944.29-.07.577.033.778.287-.39.355-.74.712-.615 1.26zm-37.193 9.474l-.615 2.033c-.703 1.07-1.13 2.307-2.172 3.274-.154.353.04.85-.445 1.067-.848 0-1.652-.06-2.2.62l.157.49c-1.332-.137-2.107 1-3.107 1.71.035.56.062 1.39-.613 1.39-.326-.06-.525-.48-.94-.31-.487.187-.196.67 0 .77-1.946-.033-3.05 2.053-5.116 1.723-1.69.812-3.342 1.62-5.283 1.713l-.486.464c-.576 2.26-.604 4.767-1.223 7 .16 2.487-.33 5.27-.17 7.773.464 2.372-.52 4.538-2.17 6.226-1.3-.845-2.27 1.463-3.437 0-.744-1.26-2.562-.356-3.115-1.85-1.742-2.69-1.87-6.64-1.064-9.83-.258-2.29.396-4.23.62-6.382-.72-1.33-2.653-1.06-3.112-2.625-1.427-.91-1.554-2.395-2.327-3.588-.586-1.86 1.035-3.213.773-5.127 1.104-1.11 2.014-3.28 4.047-2.672 3.055-.506 1.23-4.426 2.18-6.512.19-.68-.268-1.166-.787-1.393-2.485.82-5.412.713-7.448 2.63-2.104.292-4.47.39-5.763-1.718-1.23.265-.748 1.748-1.102 2.65 1.553 2.375.32 5.512.48 8.233.456 3.413-.19 6.173-.322 9.503-.687 1.302.072 3.212-.615 4.52-.23 1.71 1.69 2.707.782 4.523.45 3.4-.52 6.62-2.166 9.345-.812-.11-1.49.022-2.047.612-2.23-.725-5.252.84-6.064-2.337-2.778-3.048-.67-8.142-4.17-10.9-1.528-2.585-3.5-4.98-4.536-7.774-1.008-.613-1.074-2.07-2.334-2.16-1.16 3.728-2.07 7.57-2.787 11.503.39 2.49.063 5.48-.937 7.774-.87.914-1.816 2.07-3.11 1.236-1.26-.845-3.173-.193-4.34-1.236-3.27-2.528-2.333-7.45-1.397-10.896.916-5.48 2.564-10.63 2.953-16.34.486-2.23-.42-5.05.775-7-.383-1.294-1.493-2.648-.61-4.053-.553-1.67.358-3.34-.164-4.985.188-2.37 2.883-4.13 4.826-4.964 1.902 1.165 4.79.682 6.05 2.783 1.688 3.112.556 7.37 1.562 10.737-.56 2.134 1.423 3.232 2.17 4.824 2.265 2.656 4.208 5.48 6.222 8.268 1.295-.843.024-3.01 1.096-4.038.2-.107.492-.584 0-.785-.264-1.467.455-2.89 0-4.06.104-1.714-.264-3.436.295-5.12.91-3.37-.096-7.55 1.555-10.604.582-.776 1.717-.13 2.336-.776 1.91.387 3.973 1.627 4.66 3.608.32.862-.12 2.358 1.104 2.623.744-1.16.91-2.854 2.492-3.406.903-.3 1.744.574 2.467-.16-.076-1.067.578-1.718 1.555-1.888 1.715.777 3.496-1.523 4.824.17.9.223 1.75.712 2.5-.17.73-.066 1.353-.457 2-.777l-.163-.613c.94.13 1.553-.905 2.494-.315.235.733 1.108.958 1.73.638 1.193-1.27 3.17 1.24 4.213-.935.42.266.8.613 1.39.45.593-.062 1.423.105 2.016.483 2.43-.61 4.66 1.143 6.992.293.32.424.483.92.935 1.27 1.207.515 2.47-.56 3.27.9.69 1.58 2.235 2.4 2.788 4.062 1.002.904.908 2.23 1.553 3.266.675 1.732.628 3.156.6 5.142zM386.21 29.42c-3.274-.783-6.838-1.783-10.396-.9v1.227c1.13 1.623.678 3.895 1.232 5.775l.445.443c1.164.04 2.334.064 3.11-.777 1.81-.062 3.007-1.55 4.534-2.336 1.204-.706 2.53-2.202 1.077-3.433zm-68.257-7.3c1.295.884 1.783 2.405 2.652 3.57-.227 1.358-.188 2.827-.61 4.054-1.4 1.203-3.627.29-5.32.766-1.753-.047-3.294.788-4.943.47-1.89.94-4.966 0-6.847 1.413-2.04-.15-3.982.63-4.983 2.352.32 1.713-3.207 2.75-1.395 4.17 4.338-.68 8.844-.87 12.434-3.393.95-.27 1.273.95 2.176.772 2.105 1.332 2.177 3.828 3.562 5.577-.062 2.033.49 4.568-1.84 5.447-2.624 1.004-5.285 1.808-8.107 2.33-1.025 0-2.752-.74-3.396.656-1.616.413-3.72-.302-5.15.604-1.717-.52-2.948 1.143-4.826.777-.772.592-1.07 1.364-.902 2.34 1.388 1.652 3.72 1.72 5.89 1.848 2.465-.712 5.022.303 7.004-1.548.675-.523 1.298-1.688 2.167-1.235 1.852 2.1 3.857 4.145 3.893 6.996-.288 2.012.127 4.312-1.56 5.773-1.42.686-2.49 2.23-4.337 1.847-.78.58-1.597 1.554-2.66.943-.48-.453-1.196-.883-1.845-.453l-.327.29.33.316c-1.394.785-2.105-1.488-3.6-.484-1.616-.315-3.346-.44-4.658-1.544-1.624.383-2.623-.76-3.884-1.25-1.33-.83-1.763-2.584-2.635-3.883-1.487-1.03-.876-3.18-2.333-4.342-1.812-5.99 1.07-11.606 1.846-17.27.98-2.34 1.692-4.78 3.604-6.715.778-3.25-.756-7.88 3.106-9.476 2.746.133 4.472-2.79 7.452-1.723 1.907-.39 3.625-1.197 5.76-1.104 1.886-1.23 4.44-.773 6.513-1.554 2.69-.458 6.09-.78 7.944 1.717-.07.338.126.72-.167.946zm-34.047 7.3l-3.44 1.436c-1.064-.14-1.75-.07-2.623.442-2.458.747-5.375.33-7.61 1.554-1.978.17-3.762.854-5.603 1.235-1.198.584-2.918.584-3.438 2.207.23 1.07-1.16 2.04 0 2.95 2.143.84 3.73-.91 5.77-.33 1.912-1.072 4.337-.996 6.375-1.848 1.754.04 3.146 1.205 4.182 2.63.132.616.355 1.194.783 1.72.548 1.687.124 3.755 1.1 5.283.195 1.004-.916 1.162-1.395 1.705-2.106.373-4.152 1.213-6.22 1.11-2.043 0-4.605-.157-6.384.626-2.527.128-4.795.925-7.324 1.06-.745.785-.967 1.947-.607 2.99 1.804 1.127 3.95 1.554 6.05 2.006 2.43.553 3.795-1.463 5.77-2.006 1.84.917 2.497 2.884 3.725 4.333.91 2.99.618 6.666-2 8.73-1.49 1.265-3.73.685-5.312 1.722-2.116 0-4.03-.486-5.745-1.43-1.33-.063-2.322-.975-3.59-1.23-1.293-.558-2.653-.974-3.886-1.72-3.696-2.89-5.05-7.198-4.79-11.673-.487-.873-.14-2.236 0-3.273.51-3.305 1.747-6.354 3.104-9.336 0-1.24.88-2.137.783-3.42-2.723-1.608-3.177-4.397-3.106-7.312.09-1.816.97-3.465 2.324-4.663 1.267-1.496 3.696-.203 4.96-1.725 1.94-.77 4.142-.9 6.06-1.684 1.74.103 3.107-.747 4.657-1.11 2.82-.39 5.51-1.004 8.102-1.865 2.106.38 4.705-.91 6.218 1.255l1.4 2.507c.187 0 .39-.07.487.128-.393 1.778 1.16 3.176 1.55 4.814.345.712-.01 1.57-.33 2.18zm-43.097 8.725c.103 1.608-.964 2.724-1.228 4.21-1.227 1.362-1.618 3.278-3.262 4.348-.105.577-1.167.776-.783 1.562 3.397 4.92 12.63 5.146 11.045 12.764-1.486 1.85-2.784 3.957-4.497 5.613-1.49-.357-3.21-.586-4.672-.48-3.66-4.83-8.748-8.764-13.54-12.133-.455-.386-.297-1.296-1.073-1.27-1.45.79-.708 2.433-1.545 3.44.188 3.266.866 6.36.605 9.785-.285 1.176-1.27 2.28-2.33 2.82-2.432.194-4.467-.71-5.926-2.49-3.466-4.87.062-10.9-.615-16.34-1.85-1.52-2.368-3.767-1.85-6.07-.393-.705-.17-1.28 0-2.03 1.454-.065.52-1.948 2.01-2.01 1.07.095 2.207-.05 2.662-1.11.41-2.65 1.545-5.09 2-7.77.42-1.112-.937-1.235-1.386-1.854-1.432-1.196-1.27-3.24-1.27-4.825.55-.736-.132-1.877.94-2.496-.592-1.105 1.135-1.753 1.553-2.5.48-.59.876-1.063 1.557-1.683.705.053 1.17-.876 1.885-.33 1.998.028 3.616-1.33 5.728-.613 1.98-.867 3.958.166 5.605.943 2.01.58 4.11 2.166 4.986 4.182.945.62.75 1.962 1.847 2.65-.128.36.452.66 0 .942 1.198 1.747 2.183 3.632 2.206 5.9.52 1.52.323 3.542.13 5.124-.097.644-.32 1.235-.783 1.72zm-9.008-8.4c-1.222-1.427-2.91-2.985-4.98-2.336.684 4.112-.78 7.713-1.387 11.502.123.293.42.1.605.16 2.56-.964 5.476-3.724 6.228-6.376l-.134-.178c.65-.83.1-1.967-.33-2.776zM209.26 48.75c.04.897-.774 1.46-.932 2.316-.52 1.762-1.5 3.306-1.56 5.285-.718 2.06-1.104 4.217-1.557 6.398-.68 1.075.068 2.175-.616 3.235.067.656-.133 1.37.165 1.895l-.166.148.165.17c.06.43-.13 1.326.162 1.84-.26 2.272.162 5.253-2.21 6.234-2.557 1.1-5.474.1-7.776-.94-1.227-1-.835-2.693-.897-4.182.555-1.832-.484-3.735.294-5.455-.17-.797.643-1.782-.295-2.332-2.073.584-3.854 1.855-6.093 2.01-1.583.488-3.403 1.006-5.115.787-2.502 0-5.13.22-7.61-.3-2.34-1.036-5.094-1.11-7.323-2.325-2.728-1.237-5.12-3.276-6.39-6.107.297-.425.1-.993.16-1.552-.19-.48-.707-.23-1.063-.288.684-.684.225-1.393.123-2.18-.517-.277-.385-.836-.613-1.248.395.152.688.48 1.1.48.657-.465-.188-1.236.16-1.73.105-.697-.25-1.196-.647-1.713.646-1.813-1.293-3.5.485-4.83-.386-1.167.852-2.104.622-3.397 2.492-1.854 2.234-5.387 5.273-6.878.23-.156.23-.384.33-.615.455-.06.91.74 1.228 0 .064-.62-.615-1.103-.16-1.72.485-1.395 2.1-1.62 2.815-2.78.65-.265 1.156.61 1.556-.336.39-.83-.23-2.227.935-2.62.104.294.393.103.623.16.126-1.76 2.354-.38 2.484-2.202 1.177-.41 2.076-1.552 3.115-2.34 1.91-1.095 2.753-3.812 5.123-3.88 2.425-1.724 5.73-2.692 8.71-1.698 2.595.43 4.342 2.596 6.06 4.516.938 2.993 2.846 6.712.775 9.788-1.395.527-2.594 2.072-4.338 1.27-3.016-1.627-2.04-7.486-6.55-6.228-8.78 4.02-15.58 12.58-20.827 20.52-.484 2.044-2.334 3.672-1.396 6.067 1.457 3.945 6.126 3.402 9.458 4.363 1.01 1.852 2.982.36 4.384.784 2.976 1.228 5.5-1.005 8.38-.476.65-1.078 1.98-.487 2.797-1.078 1.545-1.21 3.716-2.113 3.27-4.516-.62-1.123-1.458.1-2.178.133-4.346.85-9.1.738-13.055 2.5-1.23 0-2.267-.485-3.27-1.064a10.03 10.03 0 0 0-1.394-2.823c0-2.786-.46-6.16 2.494-7.3 7.296-2.648 15.74-2.39 23.322-4.37 2.074.035 4.307-.03 5.445 2.05.13 1.194 1.562 1.873 1.23 3.23.563 1.65 1.66 3.667.78 5.33zm0 0c.04.897-.774 1.46-.932 2.316-.52 1.762-1.5 3.306-1.56 5.285-.718 2.06-1.104 4.217-1.557 6.398-.68 1.075.068 2.175-.616 3.235.067.656-.133 1.37.165 1.895l-.166.148.165.17c.06.43-.13 1.326.162 1.84-.26 2.272.162 5.253-2.21 6.234-2.557 1.1-5.474.1-7.776-.94-1.227-1-.835-2.693-.897-4.182.555-1.832-.484-3.735.294-5.455-.17-.797.643-1.782-.295-2.332-2.073.584-3.854 1.855-6.093 2.01-1.583.488-3.403 1.006-5.115.787-2.502 0-5.13.22-7.61-.3-2.34-1.036-5.094-1.11-7.323-2.325-2.728-1.237-5.12-3.276-6.39-6.107.297-.425.1-.993.16-1.552-.19-.48-.707-.23-1.063-.288.684-.684.225-1.393.123-2.18-.517-.277-.385-.836-.613-1.248.395.152.688.48 1.1.48.657-.465-.188-1.236.16-1.73.105-.697-.25-1.196-.647-1.713.646-1.813-1.293-3.5.485-4.83-.386-1.167.852-2.104.622-3.397 2.492-1.854 2.234-5.387 5.273-6.878.23-.156.23-.384.33-.615.455-.06.91.74 1.228 0 .064-.62-.615-1.103-.16-1.72.485-1.395 2.1-1.62 2.815-2.78.65-.265 1.156.61 1.556-.336.39-.83-.23-2.227.935-2.62.104.294.393.103.623.16.126-1.76 2.354-.38 2.484-2.202 1.177-.41 2.076-1.552 3.115-2.34 1.91-1.095 2.753-3.812 5.123-3.88 2.425-1.724 5.73-2.692 8.71-1.698 2.595.43 4.342 2.596 6.06 4.516.938 2.993 2.846 6.712.775 9.788-1.395.527-2.594 2.072-4.338 1.27-3.016-1.627-2.04-7.486-6.55-6.228-8.78 4.02-15.58 12.58-20.827 20.52-.484 2.044-2.334 3.672-1.396 6.067 1.457 3.945 6.126 3.402 9.458 4.363 1.01 1.852 2.982.36 4.384.784 2.976 1.228 5.5-1.005 8.38-.476.65-1.078 1.98-.487 2.797-1.078 1.545-1.21 3.716-2.113 3.27-4.516-.62-1.123-1.458.1-2.178.133-4.346.85-9.1.738-13.055 2.5-1.23 0-2.267-.485-3.27-1.064a10.03 10.03 0 0 0-1.394-2.823c0-2.786-.46-6.16 2.494-7.3 7.296-2.648 15.74-2.39 23.322-4.37 2.074.035 4.307-.03 5.445 2.05.13 1.194 1.562 1.873 1.23 3.23.563 1.65 1.66 3.667.78 5.33z"/><g fill="#FFF"><path opacity=".9" d="M77.458 136.527c-35.675 0-64.698-29.02-64.698-64.69 0-35.674 29.023-64.694 64.698-64.694 35.672 0 64.693 29.02 64.693 64.694.005 35.67-29.02 64.69-64.69 64.69zm0-126.027c-33.82 0-61.336 27.516-61.336 61.336 0 33.816 27.517 61.33 61.336 61.33 33.818 0 61.333-27.514 61.333-61.33 0-33.82-27.51-61.336-61.33-61.336z"/><path opacity=".9" d="M74.098 131.488c-35.673 0-64.695-29.022-64.695-64.696C9.403 31.12 38.425 2.1 74.098 2.1s64.695 29.02 64.695 64.692c0 35.673-29.022 64.696-64.695 64.696zm0-126.03c-33.82 0-61.334 27.515-61.334 61.333 0 33.82 27.514 61.34 61.334 61.34 33.817 0 61.334-27.518 61.334-61.338 0-33.817-27.516-61.33-61.334-61.33z"/><path opacity=".9" d="M69.056 139.89c-35.676 0-64.697-29.022-64.697-64.692C4.36 39.52 33.38 10.5 69.054 10.5c35.672 0 64.692 29.02 64.692 64.697 0 35.67-29.02 64.692-64.692 64.692zm0-126.033c-33.82 0-61.336 27.518-61.336 61.338 0 33.818 27.515 61.332 61.336 61.332 33.816 0 61.33-27.514 61.33-61.332 0-33.82-27.513-61.338-61.33-61.338z"/><path opacity=".9" d="M65.694 134.846C30.022 134.846 1 105.826 1 70.154 1 34.48 30.022 5.46 65.694 5.46c35.675 0 64.696 29.02 64.696 64.694 0 35.673-29.023 64.692-64.696 64.692zm0-126.03c-33.818 0-61.332 27.518-61.332 61.338 0 33.818 27.514 61.332 61.332 61.332 33.82 0 61.334-27.514 61.334-61.332 0-33.82-27.514-61.338-61.334-61.338z"/></g><path fill="#FFF" d="M99.292 75.14c.048 1.08-.938 1.76-1.125 2.794-.627 2.125-1.81 3.987-1.882 6.38-.866 2.48-1.33 5.085-1.876 7.716-.82 1.3.075 2.625-.748 3.906.08.793-.16 1.65.198 2.285l-.197.184.198.205c.073.52-.15 1.6.198 2.22-.313 2.74.192 6.34-2.67 7.52-3.085 1.33-6.603.12-9.385-1.13-1.48-1.21-1.007-3.254-1.084-5.05.666-2.21-.586-4.51.354-6.58-.206-.964.77-2.153-.355-2.815-2.505.703-4.65 2.234-7.355 2.422-1.91.594-4.107 1.216-6.176.95-3.02 0-6.19.266-9.188-.356-2.822-1.25-6.145-1.345-8.84-2.81-3.288-1.496-6.18-3.957-7.71-7.373.358-.515.12-1.2.196-1.873-.23-.584-.854-.278-1.283-.35.82-.824.27-1.68.146-2.63-.62-.336-.46-1.01-.74-1.505.48.183.83.573 1.327.573.795-.56-.23-1.49.193-2.08.128-.846-.303-1.447-.78-2.066.78-2.193-1.563-4.23.586-5.834-.464-1.406 1.025-2.54.752-4.102 3.008-2.236 2.696-6.503 6.367-8.302.277-.188.277-.46.396-.742.55-.07 1.103.896 1.483 0 .08-.75-.743-1.33-.19-2.076.584-1.68 2.53-1.955 3.397-3.355.784-.32 1.396.734 1.874-.406.474-1-.27-2.69 1.132-3.16.124.352.474.12.75.193.154-2.125 2.847-.46 3.004-2.66 1.418-.496 2.506-1.875 3.76-2.824 2.307-1.32 3.32-4.603 6.184-4.683 2.928-2.08 6.914-3.252 10.513-2.05 3.134.52 5.24 3.13 7.312 5.448 1.13 3.61 3.433 8.1.936 11.812-1.685.637-3.13 2.498-5.237 1.53-3.64-1.965-2.46-9.038-7.904-7.52-10.594 4.857-18.804 15.19-25.137 24.773-.585 2.468-2.816 4.43-1.684 7.322 1.757 4.763 7.392 4.104 11.414 5.27 1.223 2.23 3.603.43 5.293.943 3.59 1.48 6.638-1.213 10.113-.575.786-1.3 2.393-.586 3.374-1.3 1.865-1.46 4.484-2.55 3.95-5.448-.754-1.354-1.764.12-2.633.16-5.242 1.023-10.98.893-15.754 3.018-1.484 0-2.736-.588-3.948-1.287a12.01 12.01 0 0 0-1.68-3.4c0-3.365-.556-7.44 3.01-8.813 8.806-3.2 19-2.887 28.15-5.272 2.502.04 5.193-.04 6.572 2.472.15 1.44 1.88 2.262 1.48 3.896.684 1.99 2.008 4.422.945 6.433zM193.866 124.303c-3.19 4.117-7.366 5.684-11.368 5.684-12.817 0-20.356-9.568-20.356-21.518 0-12.298 7.54-21.867 20.356-21.867 8.468 0 16.472 5.22 17.458 14.615h-8.7c-1.044-4.583-4.466-6.96-8.758-6.96-8.18 0-11.252 6.96-11.252 14.21 0 6.9 3.073 13.86 11.252 13.86 5.916 0 9.338-3.19 9.86-8.934h-9.165v-6.785h17.4V129h-5.8l-.927-4.697zM209.7 87.59h22.33c7.424 0 12.122 5.16 12.122 11.426 0 4.87-1.974 8.524-6.556 10.38v.118c4.468 1.16 5.742 5.51 6.032 9.686.174 2.61.116 7.48 1.74 9.803h-9.105c-1.102-2.61-.984-6.61-1.448-9.918-.64-4.352-2.32-6.266-6.902-6.266h-9.105V129h-9.104V87.59h-.004zm9.106 18.732h9.978c4.06 0 6.264-1.738 6.264-5.916 0-4.002-2.204-5.74-6.264-5.74h-9.978v11.656zm34.51-18.732h30.97v7.655h-21.863v8.873h20.067v7.075h-20.067v10.148h22.33V129h-31.436V87.59zm39.324 0h30.973v7.655h-21.866v8.873h20.066v7.075h-20.066v10.148h22.33V129H292.64V87.59zm39.322 0h9.048l17.283 27.78h.116V87.59h8.52V129h-9.103L340.6 101.275h-.114V129h-8.525V87.59h.003zM416.12 129h-9.048l-7.02-28.188h-.115l-6.9 28.188h-9.223L372.85 87.59h9.106l6.554 28.187h.115l7.192-28.188h8.523l7.076 28.533h.116l6.785-28.535h8.933L416.12 129zm17.05-41.41h9.106V129h-9.105V87.59zm18.854 0h22.327c7.428 0 12.124 5.16 12.124 11.426 0 4.87-1.972 8.524-6.554 10.38v.118c4.465 1.16 5.74 5.51 6.03 9.686.175 2.61.116 7.48 1.74 9.803h-9.105c-1.103-2.61-.986-6.61-1.45-9.918-.638-4.352-2.318-6.266-6.9-6.266h-9.105V129h-9.104l-.002-41.41zm9.103 18.732h9.977c4.062 0 6.266-1.738 6.266-5.916 0-4.002-2.204-5.74-6.266-5.74h-9.977v11.656zm34.51-18.732h30.974v7.655h-21.864v8.873h20.065v7.075h-20.064v10.148h22.33V129h-31.438V87.59z"/></svg>