<?xml version="1.0" encoding="utf-8"?>
<!-- Generator: Adobe Illustrator 16.0.0, SVG Export Plug-In . SVG Version: 6.00 Build 0)  -->
<!DOCTYPE svg PUBLIC "-//W3C//DTD SVG 1.1//EN" "http://www.w3.org/Graphics/SVG/1.1/DTD/svg11.dtd">
<svg version="1.1" id="Layer_1" xmlns="http://www.w3.org/2000/svg" xmlns:xlink="http://www.w3.org/1999/xlink" x="0px" y="0px"
	 width="273px" height="259px" viewBox="0 0 273 259" enable-background="new 0 0 273 259" xml:space="preserve">
<circle id="radio" fill="#FFFFFF" stroke="#CCCCCC" stroke-miterlimit="10" cx="105.75" cy="80.75" r="16.25"/>
<g id="radioSelected">
	<circle fill="#FFFFFF" stroke="#CCCCCC" stroke-miterlimit="10" cx="163.75" cy="82.25" r="16.25"/>
	<circle fill="#4D4D4E" cx="163.5" cy="82" r="10"/>
</g>
<path id="checkbox" fill="#FFFFFF" stroke="#CCCCCC" stroke-miterlimit="10" d="M121.75,146.55c0,1.491-1.208,2.7-2.7,2.7H92.7
	c-1.492,0-2.7-1.209-2.7-2.7V120.2c0-1.492,1.208-2.7,2.7-2.7h26.35c1.492,0,2.7,1.208,2.7,2.7V146.55z"/>
<g id="checkboxSelected">
	<path fill="#FFFFFF" stroke="#CCCCCC" stroke-miterlimit="10" d="M182.75,146.05c0,1.491-1.208,2.7-2.7,2.7H153.7
		c-1.492,0-2.7-1.209-2.7-2.7V119.7c0-1.492,1.208-2.7,2.7-2.7h26.35c1.492,0,2.7,1.208,2.7,2.7V146.05z"/>
	
		<polyline fill="none" stroke="#4D4D4D" stroke-width="3" stroke-linecap="round" stroke-linejoin="round" stroke-miterlimit="10" points="
		156.5,132.999 164.557,142.765 177.009,122.5 	"/>
</g>
<polygon id="arrowUp" fill="#4D4D4D" points="92.75,193.14 120.3,193.14 106.645,170.142 "/>
<polygon id="arrowDown" fill="#4D4D4D" points="153.75,170.517 181.3,170.517 167.645,193.515 "/>
</svg>
